<svg width="75" height="75" viewBox="0 0 75 75" fill="none" xmlns="http://www.w3.org/2000/svg">
<path d="M39.556 5.59546C40.2572 5.7671 40.9601 5.93153 41.6627 6.09731C41.8037 6.13081 41.9447 6.1643 42.0899 6.19882C43.3914 6.50711 44.698 6.78692 46.0077 7.05765C46.4161 7.14252 46.8245 7.22755 47.2328 7.31258C47.329 7.33257 47.4252 7.35257 47.5243 7.37317C50.0942 7.90841 52.6525 8.50064 55.2089 9.09664C55.4264 9.14734 55.6439 9.19804 55.8614 9.24874C55.9665 9.27324 56.0715 9.29773 56.1798 9.32297C56.7761 9.46147 57.3732 9.5944 57.972 9.72143C58.0995 9.74926 58.227 9.77709 58.3583 9.80577C58.5785 9.85362 58.7992 9.89956 59.0203 9.94284C59.9142 10.1412 60.5694 10.604 61.1663 11.2938C61.2264 11.389 61.2865 11.4842 61.3485 11.5823C61.4109 11.6778 61.4734 11.7733 61.5378 11.8718C62.2294 13.2478 61.761 15.2018 61.6083 16.6752C61.5582 17.1591 61.5099 17.6431 61.4615 18.1272C61.4375 18.3666 61.4135 18.606 61.3893 18.8454C61.1386 21.3197 61.1386 21.3197 60.982 23.8012C60.9332 24.9198 60.8458 26.0323 60.7292 27.1459C60.7099 27.3593 60.7099 27.3593 60.6903 27.577C60.619 28.2097 60.5704 28.5852 60.1822 29.1027C59.7181 29.425 59.4664 29.441 58.9128 29.3421C58.4696 28.997 58.2732 28.807 58.1793 28.2459C58.1848 28.0808 58.1903 27.9156 58.196 27.7455C58.1999 27.6079 58.1998 27.6079 58.2038 27.4675C58.2415 26.4164 58.3466 25.3691 58.4555 24.3235C58.5183 23.7192 58.5777 23.1145 58.6372 22.5098C58.6494 22.3867 58.6616 22.2635 58.6741 22.1366C58.8219 20.6248 58.9373 19.1105 59.0512 17.5958C59.0588 17.496 59.0664 17.3962 59.0742 17.2933C59.0944 17.0263 59.1142 16.7593 59.134 16.4923C59.1647 16.1401 59.2013 15.7929 59.2464 15.4427C59.3137 14.9054 59.338 14.3849 59.3421 13.8446C59.3448 13.7518 59.3476 13.6591 59.3504 13.5636C59.3607 13.0663 59.3607 13.0663 59.1727 12.6188C58.7804 12.3379 58.3453 12.2627 57.8817 12.1618C57.7784 12.1381 57.6751 12.1144 57.5686 12.0901C57.2299 12.0129 56.8907 11.9379 56.5514 11.863C56.3149 11.8097 56.0785 11.7562 55.8421 11.7027C54.3613 11.3693 52.877 11.0558 51.3891 10.7553C49.9654 10.4651 48.5515 10.1364 47.1368 9.80563C45.1385 9.33897 43.1343 8.90361 41.1259 8.48201C39.781 8.19858 38.4461 7.88916 37.1154 7.54479C37.1169 7.62608 37.1184 7.70736 37.1199 7.79111C37.1345 8.63758 37.1444 9.48401 37.1517 10.3306C37.155 10.6465 37.1595 10.9623 37.1652 11.2781C37.1733 11.7323 37.177 12.1864 37.1799 12.6406C37.1833 12.7817 37.1867 12.9228 37.1903 13.0681C37.1906 14.0507 37.1906 14.0507 36.7982 14.5692C36.4685 14.801 36.3222 14.9011 35.9265 14.8931C35.7998 14.8957 35.7998 14.8957 35.6705 14.8983C35.2079 14.7494 35.0315 14.5385 34.7375 14.15C34.6449 13.6465 34.6607 13.1511 34.673 12.6406C34.6744 12.4221 34.6744 12.4221 34.6759 12.1992C34.6795 11.7348 34.6878 11.2705 34.6962 10.8061C34.6996 10.4909 34.7026 10.1757 34.7053 9.8605C34.7125 9.08853 34.7236 8.31667 34.7375 7.54479C34.614 7.57389 34.4904 7.60299 34.3631 7.63297C31.7527 8.24654 29.1383 8.8348 26.514 9.38601C24.3463 9.8413 22.1868 10.3234 20.0312 10.8325C18.3698 11.2248 16.7068 11.5949 15.0306 11.9191C13.6804 12.1425 13.6804 12.1425 12.5439 12.829C12.4277 14.2226 12.5865 15.6339 12.7319 17.0198C12.7948 17.6217 12.8538 18.224 12.9128 18.8264C12.9257 18.957 12.9385 19.0877 12.9518 19.2223C13.1206 20.9592 13.2601 22.6986 13.4025 24.4377C13.589 26.7064 13.7788 28.9745 13.9888 31.2411C14.2301 33.8481 14.453 36.4564 14.675 39.0651C14.9057 41.7751 15.1428 44.4844 15.3924 47.1928C15.6299 49.7734 15.8542 52.355 16.0694 54.9375C16.083 55.0998 16.0966 55.2621 16.1105 55.4294C16.1499 55.9005 16.1889 56.3716 16.2278 56.8427C16.2403 56.9933 16.2528 57.144 16.2657 57.2992C16.33 58.0851 16.3898 58.8712 16.4434 59.6579C16.4545 59.8193 16.4657 59.9806 16.4772 60.1468C16.4982 60.4529 16.5183 60.759 16.5375 61.0652C16.5893 62.3702 16.5893 62.3702 17.0851 63.5449C17.8976 64.0925 19.0369 64.2316 19.9748 64.4573C21.0051 64.7097 22.0281 64.9768 23.0462 65.2747C24.4406 65.682 25.8479 66.0296 27.258 66.3777C28.7428 66.7469 30.2143 67.1658 31.6869 67.5801C32.4708 67.8006 33.2553 68.0178 34.0415 68.2295C34.2755 68.2948 34.5071 68.3685 34.7375 68.4453C34.737 68.3703 34.7366 68.2953 34.736 68.2181C34.7244 66.3933 34.7157 64.5686 34.7101 62.7438C34.7074 61.8613 34.7036 60.9789 34.6977 60.0964C34.6919 59.245 34.6888 58.3936 34.6874 57.5422C34.6864 57.2171 34.6845 56.8921 34.6817 56.5671C34.6778 56.1122 34.6773 55.6575 34.6775 55.2027C34.6756 55.0679 34.6737 54.9332 34.6718 54.7943C34.6752 54.2108 34.6791 53.877 34.989 53.3708C35.3206 53.0718 35.4568 52.9971 35.9017 52.9477C36.4193 52.9984 36.6151 53.1597 36.9833 53.5174C37.139 53.8287 37.1336 54.0177 37.1363 54.365C37.1383 54.549 37.1383 54.549 37.1402 54.7367C37.141 54.8716 37.1418 55.0065 37.1425 55.1455C37.1439 55.2873 37.1452 55.4291 37.1465 55.5751C37.1507 56.0455 37.154 56.5158 37.1572 56.9862C37.1599 57.3116 37.1627 57.637 37.1655 57.9624C37.1728 58.8203 37.1794 59.6782 37.1857 60.536C37.1924 61.4109 37.1997 62.2857 37.207 63.1605C37.2212 64.8781 37.2347 66.5956 37.2475 68.3132C37.8133 68.1725 38.3791 68.0317 38.9448 67.8906C39.1363 67.8429 39.3278 67.7953 39.5193 67.7477C41.2346 67.3214 42.9438 66.8767 44.6439 66.3929C46.284 65.9262 47.9323 65.504 49.5877 65.0955C50.7712 64.8013 51.9459 64.4764 53.1167 64.1353C53.2106 64.1081 53.3046 64.0808 53.4015 64.0527C54.2923 63.8489 54.2923 63.8489 54.9826 63.3262C55.1815 62.7297 55.2325 62.1076 55.279 61.4834C55.2901 61.337 55.3012 61.1905 55.3126 61.0396C55.3243 60.8814 55.336 60.7232 55.348 60.5602C55.3674 60.3038 55.3869 60.0473 55.4064 59.7909C55.4271 59.5175 55.4477 59.2441 55.4683 58.9707C55.6949 55.9672 55.9384 52.9659 56.2211 49.9671C56.235 49.8195 56.249 49.6719 56.2633 49.5198C56.3172 48.9485 56.3713 48.3772 56.4256 47.806C56.5299 46.707 56.6296 45.6076 56.7258 44.5078C56.749 44.243 56.7724 43.9782 56.7958 43.7134C56.8684 42.8873 56.9394 42.0611 57.0077 41.2347C57.0421 40.8191 57.0772 40.4036 57.1124 39.9881C57.129 39.7909 57.1451 39.5935 57.161 39.3962C57.1828 39.124 57.2058 38.8518 57.2289 38.5797C57.2416 38.4249 57.2543 38.2702 57.2674 38.1108C57.3509 37.4911 57.4548 36.9308 57.8229 36.418C58.2279 36.1368 58.4282 36.1244 58.9128 36.2116C59.4861 36.5089 59.4861 36.5089 59.7054 36.8721C59.8416 37.9875 59.6547 39.1622 59.5403 40.2738C59.5032 40.6474 59.4669 41.021 59.4309 41.3947C59.4163 41.5451 59.4163 41.5451 59.4014 41.6985C59.2689 43.0829 59.1584 44.4692 59.0449 45.8553C58.8867 47.7803 58.721 49.7038 58.5355 51.6263C58.3962 53.0881 58.2748 54.5512 58.1546 56.0147C58.0873 56.8304 58.0185 57.6459 57.9499 58.4615C57.8911 59.1641 57.8344 59.8668 57.7806 60.5698C57.7581 60.8591 57.7344 61.1483 57.7101 61.4375C57.6818 61.7752 57.6555 62.1132 57.6317 62.4513C57.5299 63.6101 57.2232 64.6013 56.3119 65.3821C55.2454 66.2204 53.9257 66.4792 52.6295 66.7857C51.619 67.0268 50.6167 67.2815 49.6215 67.5793C48.4929 67.9171 47.356 68.2139 46.2142 68.5031C46.0115 68.5547 45.8088 68.6064 45.6061 68.6582C45.3034 68.7355 45.0007 68.8128 44.698 68.89C43.8541 69.1051 43.011 69.3232 42.1684 69.5434C42.0473 69.575 41.9262 69.6067 41.8015 69.6393C41.1198 69.8177 40.4385 69.9977 39.7575 70.1791C39.6037 70.2197 39.45 70.2602 39.2915 70.302C38.972 70.3889 38.6539 70.4808 38.3369 70.5765C38.1708 70.6252 38.0048 70.6739 37.8337 70.7241C37.6892 70.7683 37.5446 70.8126 37.3956 70.8582C35.9643 71.1756 34.5646 70.9129 33.177 70.5342C32.9336 70.4706 32.9336 70.4706 32.6853 70.4057C31.7609 70.1619 30.8417 69.9029 29.9277 69.623C29.0293 69.3518 28.1186 69.1318 27.2075 68.9076C26.2105 68.6623 25.217 68.4161 24.2352 68.115C22.7829 67.6702 21.3027 67.328 19.8288 66.9634C19.0265 66.7637 18.2284 66.5526 17.4318 66.3316C17.2657 66.293 17.2657 66.293 17.0963 66.2537C16.1283 65.9992 15.3451 65.3498 14.773 64.5342C14.2935 63.7074 14.2594 62.8255 14.1869 61.8895C14.1712 61.7079 14.1554 61.5263 14.1394 61.3446C14.0888 60.7614 14.0426 60.1779 13.997 59.5942C13.9821 59.4052 13.9672 59.2162 13.9523 59.0272C13.8983 58.3394 13.8443 57.6517 13.7916 56.9639C13.6438 55.0369 13.4683 53.1131 13.287 51.189C13.0391 48.5592 12.8098 45.9283 12.5934 43.2957C12.352 40.3469 12.352 40.3469 12.0815 37.4006C11.8907 35.4372 11.7313 33.4713 11.5696 31.5054C11.2926 28.1392 10.9888 24.7762 10.6728 21.4135C10.5372 19.9673 10.4096 18.5205 10.2849 17.0733C10.2271 16.4071 10.169 15.7417 10.0917 15.0774C9.92469 13.618 9.89134 12.2734 10.8348 11.0786C11.8803 10.0112 13.2332 9.75663 14.6483 9.48181C15.0954 9.39491 15.5415 9.30368 15.9878 9.21279C16.2191 9.16575 16.4503 9.11892 16.6817 9.0723C17.788 8.84911 18.89 8.6085 19.9913 8.36219C20.0857 8.34116 20.1802 8.32012 20.2775 8.29845C21.5279 8.01988 22.7768 7.73495 24.0251 7.44726C24.1607 7.41602 24.2963 7.38477 24.436 7.35258C24.5725 7.32114 24.7089 7.28969 24.8495 7.2573C25.1264 7.1935 25.4032 7.1297 25.6801 7.06591C25.8163 7.03452 25.9525 7.00312 26.0928 6.97077C28.0053 6.53043 29.9193 6.1094 31.8436 5.7237C32.3361 5.62449 32.8252 5.5177 33.3133 5.3986C33.4715 5.36052 33.4715 5.36052 33.633 5.32168C33.8967 5.2572 34.1598 5.19004 34.4227 5.12252C36.2041 4.79845 37.8317 5.17328 39.556 5.59546Z" fill="#999999"/>
<path d="M29.3207 37.0031C29.6752 37.2146 29.6752 37.2146 29.9812 37.5315C30.0606 37.9461 30.0606 37.9461 30.0562 38.4404C30.0563 38.578 30.0563 38.578 30.0564 38.7183C30.0559 39.0143 30.0509 39.31 30.0457 39.606C30.0447 39.7891 30.0441 39.9722 30.0437 40.1552C30.0402 40.8329 30.031 41.5106 30.0225 42.1882C30.0089 43.7031 29.9952 45.2181 29.9812 46.7789C33.9047 46.7789 37.8283 46.7789 41.8707 46.7789C41.8445 43.7593 41.8445 43.7593 41.8112 40.7398C41.8082 40.1552 41.8082 40.1552 41.8076 39.8814C41.8066 39.6905 41.8043 39.4996 41.8009 39.3088C41.7961 39.0192 41.7954 38.73 41.7957 38.4404C41.7942 38.2773 41.7928 38.1142 41.7912 37.9461C41.8707 37.5315 41.8707 37.5315 42.1767 37.2151C42.647 36.9338 42.9165 36.9164 43.4559 37.0031C43.8838 37.3405 44.0915 37.5386 44.1996 38.0793C44.1998 38.2367 44.2001 38.394 44.2003 38.5561C44.2014 38.6441 44.2024 38.7321 44.2035 38.8228C44.2061 39.1169 44.204 39.4107 44.2019 39.7048C44.2028 39.916 44.204 40.1271 44.2054 40.3383C44.2084 40.9112 44.2073 41.4841 44.2052 42.057C44.2035 42.6567 44.2051 43.2564 44.2061 43.856C44.2073 44.8631 44.2057 45.8701 44.2026 46.8771C44.199 48.0412 44.2001 49.2053 44.2038 50.3694C44.2068 51.3691 44.2072 52.3687 44.2055 53.3684C44.2044 53.9653 44.2043 54.5623 44.2065 55.1593C44.2084 55.7205 44.2071 56.2817 44.2033 56.843C44.2024 57.0489 44.2026 57.2548 44.2041 57.4608C44.2059 57.7421 44.2036 58.023 44.2003 58.3043C44.2 58.5403 44.2 58.5403 44.1996 58.781C44.0915 59.3218 43.8838 59.5199 43.4559 59.8573C42.9198 59.9434 42.6474 59.9248 42.1767 59.6513C41.7712 59.2241 41.7816 58.8823 41.7957 58.323C41.7956 58.2208 41.7955 58.1186 41.7954 58.0133C41.7959 57.6832 41.801 57.3533 41.8062 57.0232C41.8071 56.8191 41.8078 56.6151 41.8082 56.411C41.8116 55.6552 41.8209 54.8995 41.8294 54.1437C41.8498 51.6098 41.8498 51.6098 41.8707 49.0247C37.9472 49.0247 34.0236 49.0247 29.9812 49.0247C30.0074 52.392 30.0074 52.392 30.0407 55.7593C30.0437 56.411 30.0437 56.411 30.0443 56.7162C30.0453 56.9291 30.0476 57.142 30.0509 57.3549C30.0558 57.6776 30.0564 58.0002 30.0562 58.323C30.0598 58.4649 30.0598 58.4649 30.0634 58.6097C30.0583 59.0974 30.0156 59.2926 29.6752 59.6518C29.2077 59.9228 28.9285 59.9334 28.3959 59.8573C28.042 59.6444 28.042 59.6444 27.7354 59.3289C27.6523 58.9249 27.6523 58.9249 27.6515 58.4414C27.65 58.3077 27.65 58.3077 27.6484 58.1714C27.6458 57.873 27.6479 57.5748 27.65 57.2763C27.6491 57.0624 27.6479 56.8484 27.6464 56.6344C27.6434 56.0533 27.6446 55.4723 27.6467 54.8912C27.6484 54.2833 27.6468 53.6755 27.6458 53.0676C27.6446 52.0468 27.6462 51.026 27.6493 50.0052C27.6529 48.8246 27.6517 47.6441 27.6481 46.4636C27.6451 45.4504 27.6447 44.4372 27.6464 43.4239C27.6474 42.8186 27.6476 42.2133 27.6454 41.608C27.6435 41.0389 27.6448 40.47 27.6486 39.9009C27.6495 39.6919 27.6493 39.4829 27.6478 39.274C27.646 38.9889 27.6482 38.7041 27.6515 38.419C27.6518 38.2595 27.652 38.0999 27.6523 37.9355C27.7354 37.5315 27.7354 37.5315 28.042 37.216C28.5088 36.9352 28.7842 36.9265 29.3207 37.0031Z" fill="#999999"/>
<path d="M36.3243 27.0961C36.681 27.3339 36.9243 27.5035 37.1169 27.8888C37.1302 28.0915 37.1353 28.2947 37.1364 28.4978C37.1373 28.6262 37.1383 28.7545 37.1392 28.8868C37.1398 29.0987 37.1398 29.0987 37.1403 29.315C37.1412 29.4634 37.142 29.6119 37.1429 29.7648C37.1455 30.2577 37.1471 30.7506 37.1484 31.2435C37.1489 31.4115 37.1495 31.5795 37.15 31.7526C37.1525 32.5499 37.1544 33.3471 37.1555 34.1444C37.1568 35.0646 37.1603 35.9847 37.1656 36.9049C37.1701 37.702 37.1717 38.499 37.1722 39.2961C37.1728 39.6351 37.1744 39.9742 37.1768 40.3132C37.18 40.7873 37.1799 41.2613 37.179 41.7354C37.1807 41.8759 37.1824 42.0164 37.1841 42.1612C37.1774 43.1134 37.1774 43.1134 36.8653 43.6273C36.5079 43.9451 36.3684 43.9998 35.8867 44.0634C35.3996 44.0056 35.3996 44.0056 35.0441 43.6985C34.5852 43.1033 34.6477 42.449 34.6557 41.7267C34.6547 41.5782 34.6538 41.4297 34.6528 41.2767C34.6506 40.7866 34.6531 40.2967 34.6559 39.8066C34.6558 39.4657 34.6555 39.1249 34.655 38.784C34.6546 38.0701 34.6565 37.3562 34.6602 36.6422C34.6644 35.8177 34.6644 34.9932 34.6621 34.1686C34.66 33.3741 34.6609 32.5796 34.6632 31.785C34.6639 31.4475 34.6638 31.1099 34.663 30.7723C34.6622 30.3008 34.6649 29.8294 34.6686 29.3579C34.6677 29.2182 34.6668 29.0785 34.6659 28.9346C34.6783 27.9884 34.6783 27.9884 34.9911 27.4749C35.4391 27.075 35.7275 27.0376 36.3243 27.0961Z" fill="#999999"/>
<path d="M17.9714 16.3585C18.1287 16.3595 18.1287 16.3595 18.2893 16.3606C18.3942 16.3599 18.4991 16.3592 18.6071 16.3585C18.8837 16.3936 18.8837 16.3936 19.148 16.6578C19.1779 16.9546 19.1779 16.9546 19.1738 17.3194C19.1731 17.4367 19.1724 17.5541 19.1718 17.675C19.1681 17.899 19.1681 17.899 19.1645 18.1275C19.159 18.6016 19.1536 19.0757 19.148 19.5641C20.107 19.5641 21.0661 19.5641 22.0543 19.5641C22.0386 18.6689 22.0386 18.6689 22.0186 17.7738C22.0176 17.6622 22.0166 17.5505 22.0156 17.4355C22.0135 17.3213 22.0114 17.2072 22.0093 17.0896C22.0638 16.7264 22.1615 16.6129 22.4506 16.3936C22.8203 16.3255 23.1266 16.3634 23.5074 16.3936C23.8601 16.7463 23.8058 16.9184 23.8079 17.4112C23.8098 17.648 23.8098 17.648 23.8117 17.8895C23.8116 18.0607 23.8115 18.2318 23.8114 18.4082C23.8119 18.5849 23.8125 18.7616 23.8131 18.9383C23.8141 19.3088 23.814 19.6793 23.8133 20.0497C23.8126 20.5251 23.8148 21.0004 23.8179 21.4757C23.8198 21.8407 23.8199 22.2056 23.8195 22.5705C23.8196 22.8312 23.8215 23.0918 23.8233 23.3525C23.8225 23.5103 23.8217 23.6681 23.8208 23.8307C23.8209 23.9701 23.821 24.1096 23.8211 24.2532C23.8048 24.3624 23.7884 24.4716 23.7716 24.5841C23.2835 24.9095 23.0275 24.8999 22.4506 24.8483C22.2259 24.6934 22.2259 24.6934 22.0543 24.452C22.0093 24.116 22.0093 24.116 22.0156 23.7198C22.0175 23.5071 22.0175 23.5071 22.0194 23.2902C22.0228 23.1423 22.0261 22.9944 22.0295 22.842C22.0322 22.6179 22.0322 22.6179 22.0349 22.3892C22.0396 22.0199 22.0467 21.6507 22.0543 21.2815C21.0952 21.2815 20.1361 21.2815 19.148 21.2815C19.1525 21.5058 19.1571 21.7301 19.1619 21.9611C19.1656 22.2547 19.1692 22.5484 19.1727 22.842C19.176 22.9899 19.1794 23.1378 19.1828 23.2902C19.1847 23.5028 19.1847 23.5028 19.1867 23.7198C19.1898 23.9159 19.1898 23.9159 19.1929 24.116C19.148 24.452 19.148 24.452 18.9763 24.6929C18.6002 24.9531 18.2677 24.8956 17.8269 24.8483C17.6029 24.6944 17.6029 24.6944 17.4306 24.452C17.3811 24.1103 17.3811 24.1103 17.3814 23.6957C17.3806 23.5406 17.3798 23.3854 17.3789 23.2256C17.3801 23.0579 17.3813 22.8903 17.3826 22.7176C17.3825 22.5458 17.3825 22.374 17.3824 22.197C17.3824 21.8335 17.3838 21.4701 17.3862 21.1066C17.3892 20.6403 17.3892 20.174 17.3884 19.7077C17.3878 19.2634 17.3894 18.819 17.3908 18.3747C17.3907 18.2068 17.3906 18.0389 17.3905 17.8659C17.3917 17.7112 17.393 17.5565 17.3943 17.397C17.3949 17.2603 17.3955 17.1237 17.3961 16.9828C17.4406 16.5632 17.5435 16.4128 17.9714 16.3585Z" fill="#999999"/>
<path d="M43.6938 16.3465C43.8239 16.3464 43.8239 16.3464 43.9567 16.3463C44.1398 16.3466 44.323 16.3479 44.506 16.35C44.7867 16.3532 45.0672 16.3528 45.3479 16.3519C46.7237 16.3576 46.7237 16.3576 47.0248 16.6587C47.0978 17.5781 47.0978 17.5781 46.8844 17.9797C46.6285 18.1118 46.6285 18.1118 45.7037 18.1118C45.7037 19.7248 45.7037 21.3378 45.7037 22.9997C45.9653 22.9997 46.2269 22.9997 46.4964 22.9997C46.8101 23.1318 46.8101 23.1318 47.0248 23.396C47.0919 23.758 47.1053 24.093 47.0248 24.4529C46.877 24.6634 46.877 24.6634 46.6285 24.8492C46.0817 24.9239 45.535 24.9116 44.9835 24.9081C44.7138 24.907 44.4444 24.9108 44.1747 24.915C44.0049 24.9149 43.8352 24.9148 43.6602 24.9147C43.4264 24.9151 43.4264 24.9151 43.1878 24.9155C42.7974 24.8492 42.7974 24.8492 42.5484 24.6062C42.3492 24.2203 42.3464 23.9564 42.4011 23.5281C42.5332 23.2804 42.5332 23.2804 42.7974 23.1318C43.1462 23.1318 43.4949 23.1318 43.8543 23.1318C43.8543 21.4752 43.8543 19.8186 43.8543 18.1118C43.5055 18.1118 43.1567 18.1118 42.7974 18.1118C42.437 17.819 42.4078 17.638 42.3516 17.1788C42.4011 16.7908 42.4011 16.7908 42.5463 16.5714C42.9235 16.3056 43.2367 16.3454 43.6938 16.3465Z" fill="#999999"/>
<path d="M25.4876 16.3945C25.9807 16.9095 26.303 17.5324 26.6436 18.1531C26.6979 18.251 26.7522 18.3488 26.8082 18.4496C26.941 18.689 27.0731 18.9288 27.205 19.1687C27.2436 19.094 27.2823 19.0194 27.3221 18.9425C27.4972 18.6048 27.6731 18.2675 27.849 17.9302C27.9098 17.8127 27.9706 17.6952 28.0333 17.5741C28.092 17.4617 28.1508 17.3493 28.2113 17.2335C28.2652 17.1298 28.3192 17.026 28.3748 16.9191C28.5261 16.6587 28.5261 16.6587 28.7903 16.3945C29.3094 16.3368 29.601 16.3155 30.037 16.6174C30.2893 16.9908 30.2902 17.1393 30.2434 17.5834C30.0778 17.9411 30.0778 17.9411 29.8481 18.3229C29.7659 18.4614 29.6836 18.6 29.5989 18.7427C29.5119 18.886 29.4249 19.0293 29.3352 19.1769C29.1648 19.4619 28.9945 19.7469 28.8243 20.032C28.7482 20.1579 28.6721 20.2837 28.5937 20.4134C28.5278 20.5258 28.4619 20.6382 28.394 20.7539C28.3423 20.8409 28.2907 20.9279 28.2375 21.0176C28.0983 21.3596 28.0937 21.6448 28.089 22.0136C28.0857 22.1531 28.0823 22.2927 28.0789 22.4365C28.0743 22.7299 28.0701 23.0234 28.0665 23.3168C28.063 23.4562 28.0596 23.5956 28.056 23.7392C28.0542 23.8666 28.0524 23.994 28.0506 24.1252C27.9976 24.4529 27.9976 24.4529 27.8247 24.6926C27.4501 24.9552 27.1172 24.8964 26.6766 24.8492C26.4509 24.6906 26.4509 24.6906 26.2803 24.4529C26.2441 24.1404 26.2441 24.1404 26.2591 23.7707C26.2891 21.8857 26.1016 20.6569 24.9859 19.1239C24.4527 18.3871 24.0167 17.7276 24.1666 16.7908C24.4599 16.2559 24.9332 16.3167 25.4876 16.3945Z" fill="#999999"/>
<path fill-rule="evenodd" clip-rule="evenodd" d="M49.9356 16.3284L49.4781 16.3364C49.3527 16.3356 49.219 16.3286 49.0815 16.3213C48.5676 16.2942 47.9998 16.2642 47.6024 16.5493C47.5175 16.663 47.4726 16.7231 47.4436 16.7901C47.4111 16.8652 47.3985 16.9489 47.3719 17.1264L47.371 17.5326L47.3672 17.9934L47.3696 18.4913C47.3695 18.5263 47.3695 18.5613 47.3694 18.5962C47.3685 18.9973 47.3675 19.3984 47.3692 19.7996C47.3715 20.2567 47.3728 20.7137 47.3706 21.1709C47.3687 21.5276 47.3682 21.8842 47.3685 22.2409L47.3696 22.7517L47.3672 23.2496L47.371 23.7105C47.3715 23.9317 47.3717 24.0324 47.38 24.1325C47.3868 24.2163 47.3993 24.2996 47.4223 24.4526C47.6601 24.7703 47.7492 24.8389 48.1462 24.896L48.5322 24.8923L48.9546 24.8902L49.3956 24.8819C50.863 24.875 51.8231 24.694 53.1028 23.9242C54.0012 23.179 54.4701 22.2248 54.6153 21.0772C54.6778 19.7179 54.3862 18.702 53.4924 17.6652C52.4546 16.6643 51.3624 16.3292 49.9356 16.3284ZM51.4817 18.328C51.0673 18.1123 50.5407 18.1123 49.1406 18.1123V23.1323C50.2258 23.1323 50.5681 23.1323 50.888 23.0475C51.0354 23.0085 51.178 22.9514 51.3864 22.8681C51.9996 22.4526 52.4775 21.9997 52.7075 21.2828C52.8235 20.4344 52.7939 19.7065 52.2755 19.0009C51.9405 18.6666 51.7315 18.4581 51.4817 18.328Z" fill="#999999"/>
<path fill-rule="evenodd" clip-rule="evenodd" d="M39.0417 16.3189L38.5966 16.3303C38.4755 16.33 38.3476 16.3241 38.2164 16.318C37.7137 16.2947 37.1633 16.2691 36.7709 16.5516C36.6857 16.6653 36.6406 16.7254 36.6116 16.7924C36.579 16.8674 36.5665 16.9511 36.5399 17.1285L36.5389 17.5347L36.5352 17.9956L36.5376 18.4935C36.5375 18.5285 36.5374 18.5634 36.5373 18.5984C36.5364 18.9995 36.5355 19.4006 36.5371 19.8017C36.5395 20.2589 36.5408 20.7159 36.5386 21.173C36.5367 21.5298 36.5362 21.8864 36.5364 22.2431L36.5376 22.7539L36.5352 23.2518L36.5389 23.7127C36.5395 23.9338 36.5397 24.0346 36.5479 24.1347C36.5548 24.2184 36.5673 24.3017 36.5902 24.4548C36.6801 24.5805 36.7231 24.6408 36.7754 24.6916C36.8234 24.7382 36.8793 24.7769 36.9865 24.8511C37.0171 24.8544 37.0471 24.8577 37.0766 24.861C37.4757 24.9052 37.7874 24.9398 38.1359 24.6902C38.2202 24.5747 38.2631 24.5158 38.2902 24.4505C38.3184 24.3826 38.3297 24.3077 38.3526 24.1551L38.3463 23.8092L38.3424 23.4338L38.3324 23.0429C38.3273 22.6715 38.3221 22.3002 38.3139 21.9289L38.3076 21.6806H38.9681C38.9681 21.7591 38.9681 21.8172 38.9752 21.8745C38.9951 22.0367 39.0716 22.192 39.3649 22.7875L39.5296 23.1172C39.5622 23.1845 39.5943 23.2518 39.6263 23.3188C39.9005 23.8933 40.166 24.4497 40.6855 24.8511C40.8836 24.8841 40.9827 24.9006 41.0818 24.9006C41.1809 24.9006 41.28 24.8841 41.4781 24.8511C41.8001 24.6447 41.8001 24.6447 42.0065 24.3227C41.9748 23.6541 41.7864 23.1503 41.4871 22.5653L41.3378 22.2833L41.0441 21.7141L40.8176 21.2842C40.9218 21.2842 40.9849 21.2842 41.0429 21.267C41.1319 21.2405 41.2088 21.1735 41.4038 21.0035C41.9881 20.348 42.1622 19.8874 42.1717 19.0137C42.1587 18.1557 41.955 17.6651 41.346 17.0569C40.6263 16.4302 39.982 16.3167 39.0417 16.3189ZM39.9286 18.1677C39.6925 18.0545 39.3959 18.0674 38.3047 18.1148V19.9643C38.3868 19.9673 38.4682 19.9706 38.5491 19.974C38.9554 19.9908 39.349 20.0071 39.7578 19.9643C40.2046 19.7121 40.2708 19.6212 40.4184 19.1139C40.4184 18.8502 40.4184 18.7343 40.381 18.632C40.3516 18.5517 40.2992 18.4799 40.2058 18.3517C40.0963 18.2696 40.0167 18.2099 39.9286 18.1677Z" fill="#999999"/>
<path fill-rule="evenodd" clip-rule="evenodd" d="M32.1882 16.3403L32.5378 16.3323C33.4269 16.3329 34.1688 16.5052 34.8252 17.1358C35.287 17.6624 35.351 18.1639 35.3174 18.8492C35.2455 19.3184 35.0906 19.6771 34.8716 20.097L35.1028 20.1878C35.5509 20.4492 35.83 20.8249 36.0605 21.2859C36.1524 22.2654 36.14 23.1219 35.5321 23.928C35.0257 24.4705 34.4627 24.8118 33.7192 24.8912C33.3051 24.8976 32.8913 24.9018 32.4772 24.9023L32.038 24.9121L31.6174 24.9137L31.234 24.917C31.0659 24.8838 30.9846 24.8678 30.9156 24.8295C30.851 24.7937 30.7972 24.7383 30.6931 24.6311L30.6931 24.6311C30.4701 24.2532 30.4619 24.0167 30.4608 23.5794L30.457 23.1266L30.4595 22.6395L30.4583 22.1381C30.458 21.7884 30.4586 21.4388 30.4604 21.0891C30.4627 20.641 30.4614 20.193 30.459 19.7449C30.4574 19.3514 30.4583 18.9579 30.4592 18.5644L30.4595 18.4617L30.457 17.9738L30.4608 17.5222L30.4618 17.1243C30.5883 16.2946 31.2487 16.3142 31.9218 16.3343C32.0108 16.3369 32.1 16.3396 32.1882 16.3403ZM32.2266 21.2857C33.3178 21.2383 33.6143 21.2254 33.8504 21.3386C33.9385 21.3808 34.0182 21.4405 34.1276 21.5226C34.2211 21.6508 34.2735 21.7226 34.3028 21.8029C34.3402 21.9052 34.3402 22.0211 34.3402 22.2848C34.1927 22.7921 34.1265 22.883 33.6797 23.1352C33.2709 23.178 32.8772 23.1617 32.471 23.1449L32.4709 23.1449C32.39 23.1415 32.3086 23.1382 32.2266 23.1352V21.2857ZM32.6642 18.1026C32.5529 18.1028 32.4415 18.107 32.2266 18.1149V19.5681C32.2509 19.5697 32.2748 19.5714 32.2983 19.573C32.6624 19.5981 32.9374 19.6172 33.2669 19.4195C33.3292 19.3157 33.3653 19.2554 33.3894 19.1906C33.4228 19.1007 33.4328 19.0022 33.4568 18.7672C33.4357 18.5694 33.4254 18.4724 33.3854 18.3898C33.3468 18.3105 33.2808 18.2444 33.1513 18.1149C32.9033 18.1064 32.7838 18.1023 32.6642 18.1026Z" fill="#999999"/>
</svg>
