<svg width="75" height="75" viewBox="0 0 75 75" fill="none" xmlns="http://www.w3.org/2000/svg">
<rect x="10" y="10" width="55" height="46" rx="2" fill="white"/>
<path d="M46 61.5L29.5 61L29.0632 62.7473L27.5 69.5L47 69L46 61.5Z" fill="#CFAF63"/>
<mask id="path-3-outside-1_13687_32179" maskUnits="userSpaceOnUse" x="3" y="3" width="68" height="68" fill="black">
<rect fill="white" x="3" y="3" width="68" height="68"/>
<path d="M9.65356 4.00567C9.90234 4.00507 10.1511 4.00424 10.3999 4.00321C11.0815 4.00105 11.7632 4.00211 12.4449 4.00373C13.1808 4.0049 13.9166 4.00309 14.6525 4.00166C16.0934 3.99935 17.5343 3.99985 18.9751 4.00135C20.1462 4.00253 21.3173 4.00268 22.4883 4.00212C22.655 4.00204 22.8217 4.00196 22.9935 4.00188C23.3322 4.00171 23.6708 4.00154 24.0095 4.00137C27.0942 3.99993 30.1789 4.00143 33.2637 4.00415C36.0784 4.00661 38.8931 4.00639 41.7079 4.00391C44.8718 4.00113 48.0357 4.00003 51.1996 4.00163C51.537 4.00179 51.8744 4.00196 52.2119 4.00212C52.4609 4.00224 52.4609 4.00224 52.7149 4.00236C53.8845 4.00281 55.0541 4.00205 56.2237 4.00083C57.6492 3.99937 59.0746 3.99977 60.5 4.00253C61.2272 4.0039 61.9544 4.00444 62.6816 4.00272C63.3476 4.00117 64.0134 4.00202 64.6793 4.00478C64.92 4.00536 65.1607 4.00507 65.4014 4.00381C67.0227 3.99597 68.355 4.0792 69.5914 5.24053C70.2874 6.03233 70.6145 6.85293 70.6164 7.89805C70.617 8.04306 70.6176 8.18806 70.6182 8.33746C70.6181 8.57643 70.6181 8.57643 70.6181 8.82022C70.6186 8.98947 70.6191 9.15871 70.6196 9.33308C70.6209 9.80325 70.6213 10.2734 70.6217 10.7436C70.6222 11.2506 70.6234 11.7575 70.6246 12.2645C70.6271 13.489 70.6285 14.7135 70.6296 15.938C70.6302 16.5147 70.6309 17.0915 70.6315 17.6683C70.6338 19.5857 70.6356 21.5031 70.6366 23.4206C70.6368 23.9181 70.6371 24.4156 70.6373 24.9132C70.6374 25.0368 70.6375 25.1605 70.6375 25.2879C70.6386 27.2909 70.6419 39.2938 70.6461 41.2968C70.6504 43.3536 70.6527 45.4103 70.6532 47.4671C70.6534 48.6217 70.6546 49.7764 70.6579 50.931C70.6607 51.9144 70.6618 52.8978 70.6605 53.8812C70.6599 54.3827 70.6601 54.8842 70.6627 55.3857C70.6654 55.9301 70.6641 56.4744 70.6623 57.0188C70.6645 57.2552 70.6645 57.2552 70.6667 57.4963C70.6571 58.7538 70.3974 59.8204 69.5214 60.7584C68.6685 61.5252 67.7552 61.8994 66.6042 61.8976C66.4767 61.898 66.4767 61.898 66.3467 61.8983C66.0637 61.8987 65.7808 61.8973 65.4978 61.8959C65.2942 61.8958 65.0906 61.8958 64.8871 61.896C64.3357 61.8961 63.7843 61.8945 63.2329 61.8927C62.6562 61.8911 62.0795 61.8909 61.5028 61.8906C60.4113 61.8898 59.3198 61.8877 58.2283 61.8851C56.9855 61.8822 55.7426 61.8808 54.4997 61.8795C51.9436 61.8767 49.3874 61.8722 46.8312 61.8664C46.8491 61.9541 46.8669 62.0419 46.8853 62.1323C46.9205 62.3061 46.9205 62.3061 46.9563 62.4835C46.9911 62.6553 46.9911 62.6553 47.0266 62.8306C47.1126 63.2773 47.1733 63.7223 47.23 64.1737C47.2412 64.2623 47.2523 64.3509 47.2638 64.4421C47.287 64.6267 47.3099 64.8113 47.3325 64.996C47.3671 65.277 47.4028 65.5579 47.4385 65.8388C47.4611 66.0197 47.4836 66.2007 47.506 66.3816C47.5261 66.5434 47.5462 66.7052 47.5669 66.8718C47.607 67.2851 47.6187 67.6857 47.6105 68.1005C47.7087 68.0984 47.8069 68.0964 47.9081 68.0943C48.3555 68.0862 48.8028 68.0811 49.2502 68.0761C49.482 68.0712 49.482 68.0712 49.7185 68.0662C51.1649 68.0541 51.1649 68.0541 51.7666 68.4901C51.9674 68.8917 51.9346 69.2167 51.8965 69.659C51.7044 69.9441 51.7044 69.9441 51.377 70.1785C50.9864 70.2295 50.6435 70.2487 50.253 70.2445C50.081 70.2457 50.081 70.2457 49.9056 70.2469C49.5207 70.249 49.1359 70.2474 48.751 70.2457C48.4754 70.2464 48.1997 70.2474 47.9241 70.2485C47.1749 70.2509 46.4257 70.2499 45.6765 70.2483C44.8933 70.247 44.11 70.2482 43.3268 70.249C42.0113 70.25 40.6959 70.2487 39.3805 70.2462C37.8586 70.2434 36.3368 70.2443 34.8149 70.2472C33.5094 70.2495 32.2039 70.2499 30.8984 70.2485C30.1181 70.2477 29.3379 70.2476 28.5577 70.2493C27.8243 70.2508 27.0909 70.2498 26.3574 70.2468C26.0879 70.2461 25.8184 70.2463 25.5488 70.2474C25.1816 70.2488 24.8145 70.2471 24.4472 70.2445C24.2863 70.2462 24.2863 70.2462 24.1221 70.248C23.6579 70.2416 23.3786 70.2186 22.9973 69.9431C22.7129 69.5257 22.7333 69.2427 22.8037 68.7499C23.0919 68.3723 23.2608 68.2512 23.7129 68.1005C23.9716 68.0897 24.2306 68.0865 24.4896 68.0878C24.6407 68.0882 24.7918 68.0886 24.9475 68.0891C25.1053 68.0902 25.263 68.0912 25.4256 68.0924C25.5849 68.093 25.7442 68.0935 25.9084 68.0941C26.3021 68.0957 26.6959 68.0978 27.0897 68.1005C27.0992 67.9415 27.0992 67.9415 27.109 67.7792C27.1831 66.6413 27.3003 65.5145 27.4442 64.3836C27.48 64.1017 27.5147 63.8196 27.5493 63.5375C27.5719 63.3573 27.5946 63.177 27.6173 62.9967C27.6376 62.8355 27.6578 62.6744 27.6787 62.5083C27.7391 62.1261 27.7391 62.1261 27.869 61.8664C27.7636 61.8669 27.6583 61.8673 27.5497 61.8678C24.9838 61.8793 22.4179 61.8879 19.852 61.8933C18.6111 61.896 17.3702 61.8996 16.1294 61.9056C15.0476 61.9108 13.9658 61.9141 12.884 61.9153C12.3114 61.9159 11.7389 61.9175 11.1663 61.9213C10.6268 61.9249 10.0873 61.9259 9.54775 61.9251C9.35033 61.9253 9.15289 61.9263 8.95547 61.9283C7.88888 61.9386 6.98647 61.9077 6.04937 61.3469C5.94574 61.2889 5.8421 61.231 5.73533 61.1713C4.91738 60.5827 4.3013 59.7513 4.10119 58.7493C4.08899 58.5127 4.08374 58.2756 4.08304 58.0387C4.0823 57.8934 4.08156 57.7481 4.0808 57.5984C4.08064 57.4387 4.08049 57.2791 4.08033 57.1146C4.07967 56.945 4.07901 56.7754 4.07833 56.6007C4.07652 56.1296 4.07554 55.6584 4.0747 55.1872C4.07387 54.7832 4.07256 54.3792 4.07125 53.9751C4.06692 52.644 4.06412 51.3128 4.06174 49.9816C4.06112 49.6348 4.06047 49.2881 4.05982 48.9414C4.05579 46.7876 4.05233 44.6339 4.05015 42.4801C4.04964 41.9813 4.04912 41.4825 4.04859 40.9836C4.04846 40.8597 4.04833 40.7357 4.04819 40.608C4.04599 38.6005 4.04065 26.5931 4.03404 24.5857C4.02731 22.5239 4.02353 20.4622 4.02259 18.4004C4.02199 17.2432 4.02008 16.0859 4.01483 14.9286C4.01037 13.9428 4.00857 12.957 4.01021 11.9712C4.01097 11.4686 4.01048 10.966 4.00655 10.4634C4.00232 9.91738 4.00419 9.37152 4.00661 8.82547C4.00443 8.66815 4.00225 8.51082 4 8.34873C4.01324 7.14739 4.33247 6.15168 5.11537 5.22105C6.42494 3.9731 7.95055 3.99674 9.65356 4.00567ZM6.3903 7.04257C6.07103 7.65655 6.03323 8.25295 6.0323 8.93694C6.0318 9.0753 6.0313 9.21367 6.03079 9.35622C6.0309 9.50678 6.03102 9.65734 6.03113 9.81246C6.03075 9.97353 6.03036 10.1346 6.02996 10.3006C6.02903 10.7467 6.02868 11.1928 6.02859 11.639C6.02835 12.1205 6.02736 12.6021 6.02649 13.0836C6.02473 14.136 6.02394 15.1885 6.02337 16.2409C6.02301 16.8982 6.02246 17.5556 6.02188 18.2129C6.02029 20.0336 6.01896 21.8542 6.01852 23.6748C6.01849 23.7913 6.01846 23.9077 6.01843 24.0277C6.0184 24.1445 6.01837 24.2612 6.01835 24.3815C6.01829 24.618 6.01823 24.8545 6.01817 25.0911C6.01814 25.2084 6.01811 25.3257 6.01808 25.4466C6.01757 27.3481 6.0153 39.2495 6.01228 41.1509C6.0092 43.1039 6.00758 45.0569 6.00743 47.0099C6.00731 48.1061 6.00657 49.2023 6.00421 50.2985C6.0022 51.2319 6.00154 52.1652 6.00261 53.0985C6.00312 53.5745 6.003 54.0505 6.00118 54.5265C5.99922 55.043 6.00029 55.5595 6.00164 56.0761C6.0006 56.2258 5.99955 56.3755 5.99847 56.5297C6.00476 57.5532 6.08494 58.4525 6.75559 59.2607C7.36836 59.7539 7.81994 59.8262 8.59793 59.8221C8.69865 59.8226 8.79937 59.8231 8.90314 59.8236C9.24265 59.825 9.58214 59.8245 9.92165 59.824C10.1667 59.8245 10.4118 59.8252 10.6569 59.826C11.3319 59.8279 12.0069 59.8281 12.682 59.828C13.4094 59.8282 14.1368 59.8299 14.8642 59.8314C16.4555 59.8344 18.0467 59.8354 19.638 59.8361C20.6312 59.8365 21.6244 59.8373 22.6176 59.8383C25.3665 59.8408 28.1153 59.843 30.8641 59.8433C30.9521 59.8433 31.04 59.8434 31.1306 59.8434C31.487 59.8434 31.8434 59.8435 32.1998 59.8435C32.468 59.8435 32.7363 59.8436 33.0045 59.8436C33.1374 59.8436 33.1374 59.8436 33.2731 59.8437C36.0581 59.844 38.843 59.8469 41.628 59.8516C44.7561 59.8569 47.8842 59.86 51.0124 59.86C52.6689 59.8601 54.3255 59.8612 55.982 59.865C57.3925 59.8681 58.8029 59.8691 60.2134 59.8671C60.9332 59.8662 61.653 59.8663 62.3728 59.8693C63.0317 59.8719 63.6905 59.8716 64.3494 59.8689C64.5878 59.8684 64.8262 59.8691 65.0647 59.8709C66.7203 59.9153 66.7203 59.9153 68.1313 59.139C68.5671 58.4643 68.6669 57.8079 68.6675 57.0167C68.6679 56.8785 68.6684 56.7403 68.6688 56.598C68.6686 56.4469 68.6684 56.2959 68.6682 56.1403C68.6685 55.9793 68.6688 55.8182 68.6691 55.6523C68.6698 55.2056 68.6699 54.7589 68.6697 54.3122C68.6697 53.8303 68.6704 53.3484 68.671 52.8665C68.6721 51.9225 68.6724 50.9785 68.6725 50.0345C68.6726 49.2671 68.6728 48.4997 68.6733 47.7324C68.6744 45.5566 68.675 43.3808 68.6749 41.205C68.6749 41.0878 68.6749 40.9705 68.6749 40.8496C68.6749 40.7322 68.6749 40.6147 68.6749 40.4937C68.6748 38.5905 68.6761 26.6873 68.6779 24.7841C68.6798 22.8298 68.6807 20.8755 68.6805 18.9212C68.6805 17.824 68.6809 16.7269 68.6823 15.6297C68.6834 14.6956 68.6837 13.7614 68.6828 12.8273C68.6824 12.3508 68.6824 11.8743 68.6835 11.3978C68.6847 10.8809 68.6839 10.3641 68.6829 9.84719C68.6839 9.62196 68.6839 9.62196 68.685 9.39218C68.681 8.47089 68.6635 7.6266 68.1638 6.82341C67.5381 6.21515 66.9167 6.09232 66.0699 6.10028C65.9689 6.09967 65.8678 6.09906 65.7637 6.09844C65.4246 6.09689 65.0855 6.09811 64.7464 6.09932C64.501 6.09878 64.2557 6.09807 64.0103 6.0972C63.3356 6.09532 62.6609 6.09587 61.9862 6.09683C61.2587 6.09744 60.5312 6.09582 59.8037 6.09449C58.3783 6.09226 56.953 6.09215 55.5277 6.09283C54.3694 6.09336 53.2111 6.09317 52.0529 6.09247C51.8881 6.09238 51.7234 6.09228 51.5537 6.09218C51.2191 6.09198 50.8845 6.09178 50.5499 6.09158C48.3026 6.0903 46.0553 6.08976 43.808 6.09075C43.7201 6.09079 43.6322 6.09083 43.5417 6.09087C42.828 6.09119 42.1143 6.09153 41.4005 6.09187C38.6164 6.09318 35.8323 6.09209 33.0482 6.08908C29.9204 6.08569 26.7927 6.08403 23.665 6.08494C22.0088 6.0854 20.3527 6.0851 18.6965 6.08283C17.2867 6.08092 15.8768 6.08083 14.467 6.0831C13.7475 6.08421 13.028 6.08448 12.3084 6.0825C11.65 6.08071 10.9916 6.08131 10.3331 6.08383C10.0947 6.08432 9.85626 6.08393 9.61784 6.08258C9.29403 6.08088 8.97039 6.08237 8.6466 6.08466C8.55377 6.0834 8.46095 6.08215 8.36532 6.08086C7.50964 6.09331 6.93684 6.38098 6.3903 7.04257ZM29.947 61.8664C29.7267 63.2933 29.5186 64.7198 29.3382 66.1523C29.3212 66.2863 29.3041 66.4204 29.2866 66.5584C29.271 66.6843 29.2554 66.8101 29.2393 66.9397C29.2254 67.051 29.2116 67.1624 29.1973 67.2771C29.1594 67.6163 29.1594 67.6163 29.1677 68.1005C34.5681 68.1005 39.9684 68.1005 45.5324 68.1005C45.3201 65.9549 45.3201 65.9549 45.0698 63.8145C45.0453 63.6156 45.0453 63.6156 45.0203 63.4127C45.0043 63.2855 44.9883 63.1583 44.9718 63.0272C44.9578 62.9158 44.9439 62.8045 44.9294 62.6898C44.882 62.3474 44.882 62.3474 44.7532 61.8664C43.596 61.8664 42.4387 61.8664 41.2465 61.8664C41.1768 62.1637 41.1072 62.4611 41.0354 62.7674C40.74 63.9202 40.2917 64.8189 39.2861 65.5065C38.3069 66.0061 37.1504 66.0825 36.0904 65.7987C34.899 65.2991 34.3404 64.5937 33.8434 63.4249C33.7148 62.9106 33.5862 62.3963 33.4537 61.8664C32.2965 61.8664 31.1393 61.8664 29.947 61.8664ZM35.5318 61.8664C35.8321 63.0673 35.8321 63.0673 36.5708 63.8145C36.9904 64.0243 37.4148 64.0004 37.8696 63.9444C38.3667 63.7437 38.5838 63.5636 38.8122 63.0769C39.0597 62.4874 39.0597 62.4874 39.1684 61.8664C37.9683 61.8664 36.7682 61.8664 35.5318 61.8664Z"/>
</mask>
<path d="M9.65356 4.00567C9.90234 4.00507 10.1511 4.00424 10.3999 4.00321C11.0815 4.00105 11.7632 4.00211 12.4449 4.00373C13.1808 4.0049 13.9166 4.00309 14.6525 4.00166C16.0934 3.99935 17.5343 3.99985 18.9751 4.00135C20.1462 4.00253 21.3173 4.00268 22.4883 4.00212C22.655 4.00204 22.8217 4.00196 22.9935 4.00188C23.3322 4.00171 23.6708 4.00154 24.0095 4.00137C27.0942 3.99993 30.1789 4.00143 33.2637 4.00415C36.0784 4.00661 38.8931 4.00639 41.7079 4.00391C44.8718 4.00113 48.0357 4.00003 51.1996 4.00163C51.537 4.00179 51.8744 4.00196 52.2119 4.00212C52.4609 4.00224 52.4609 4.00224 52.7149 4.00236C53.8845 4.00281 55.0541 4.00205 56.2237 4.00083C57.6492 3.99937 59.0746 3.99977 60.5 4.00253C61.2272 4.0039 61.9544 4.00444 62.6816 4.00272C63.3476 4.00117 64.0134 4.00202 64.6793 4.00478C64.92 4.00536 65.1607 4.00507 65.4014 4.00381C67.0227 3.99597 68.355 4.0792 69.5914 5.24053C70.2874 6.03233 70.6145 6.85293 70.6164 7.89805C70.617 8.04306 70.6176 8.18806 70.6182 8.33746C70.6181 8.57643 70.6181 8.57643 70.6181 8.82022C70.6186 8.98947 70.6191 9.15871 70.6196 9.33308C70.6209 9.80325 70.6213 10.2734 70.6217 10.7436C70.6222 11.2506 70.6234 11.7575 70.6246 12.2645C70.6271 13.489 70.6285 14.7135 70.6296 15.938C70.6302 16.5147 70.6309 17.0915 70.6315 17.6683C70.6338 19.5857 70.6356 21.5031 70.6366 23.4206C70.6368 23.9181 70.6371 24.4156 70.6373 24.9132C70.6374 25.0368 70.6375 25.1605 70.6375 25.2879C70.6386 27.2909 70.6419 39.2938 70.6461 41.2968C70.6504 43.3536 70.6527 45.4103 70.6532 47.4671C70.6534 48.6217 70.6546 49.7764 70.6579 50.931C70.6607 51.9144 70.6618 52.8978 70.6605 53.8812C70.6599 54.3827 70.6601 54.8842 70.6627 55.3857C70.6654 55.9301 70.6641 56.4744 70.6623 57.0188C70.6645 57.2552 70.6645 57.2552 70.6667 57.4963C70.6571 58.7538 70.3974 59.8204 69.5214 60.7584C68.6685 61.5252 67.7552 61.8994 66.6042 61.8976C66.4767 61.898 66.4767 61.898 66.3467 61.8983C66.0637 61.8987 65.7808 61.8973 65.4978 61.8959C65.2942 61.8958 65.0906 61.8958 64.8871 61.896C64.3357 61.8961 63.7843 61.8945 63.2329 61.8927C62.6562 61.8911 62.0795 61.8909 61.5028 61.8906C60.4113 61.8898 59.3198 61.8877 58.2283 61.8851C56.9855 61.8822 55.7426 61.8808 54.4997 61.8795C51.9436 61.8767 49.3874 61.8722 46.8312 61.8664C46.8491 61.9541 46.8669 62.0419 46.8853 62.1323C46.9205 62.3061 46.9205 62.3061 46.9563 62.4835C46.9911 62.6553 46.9911 62.6553 47.0266 62.8306C47.1126 63.2773 47.1733 63.7223 47.23 64.1737C47.2412 64.2623 47.2523 64.3509 47.2638 64.4421C47.287 64.6267 47.3099 64.8113 47.3325 64.996C47.3671 65.277 47.4028 65.5579 47.4385 65.8388C47.4611 66.0197 47.4836 66.2007 47.506 66.3816C47.5261 66.5434 47.5462 66.7052 47.5669 66.8718C47.607 67.2851 47.6187 67.6857 47.6105 68.1005C47.7087 68.0984 47.8069 68.0964 47.9081 68.0943C48.3555 68.0862 48.8028 68.0811 49.2502 68.0761C49.482 68.0712 49.482 68.0712 49.7185 68.0662C51.1649 68.0541 51.1649 68.0541 51.7666 68.4901C51.9674 68.8917 51.9346 69.2167 51.8965 69.659C51.7044 69.9441 51.7044 69.9441 51.377 70.1785C50.9864 70.2295 50.6435 70.2487 50.253 70.2445C50.081 70.2457 50.081 70.2457 49.9056 70.2469C49.5207 70.249 49.1359 70.2474 48.751 70.2457C48.4754 70.2464 48.1997 70.2474 47.9241 70.2485C47.1749 70.2509 46.4257 70.2499 45.6765 70.2483C44.8933 70.247 44.11 70.2482 43.3268 70.249C42.0113 70.25 40.6959 70.2487 39.3805 70.2462C37.8586 70.2434 36.3368 70.2443 34.8149 70.2472C33.5094 70.2495 32.2039 70.2499 30.8984 70.2485C30.1181 70.2477 29.3379 70.2476 28.5577 70.2493C27.8243 70.2508 27.0909 70.2498 26.3574 70.2468C26.0879 70.2461 25.8184 70.2463 25.5488 70.2474C25.1816 70.2488 24.8145 70.2471 24.4472 70.2445C24.2863 70.2462 24.2863 70.2462 24.1221 70.248C23.6579 70.2416 23.3786 70.2186 22.9973 69.9431C22.7129 69.5257 22.7333 69.2427 22.8037 68.7499C23.0919 68.3723 23.2608 68.2512 23.7129 68.1005C23.9716 68.0897 24.2306 68.0865 24.4896 68.0878C24.6407 68.0882 24.7918 68.0886 24.9475 68.0891C25.1053 68.0902 25.263 68.0912 25.4256 68.0924C25.5849 68.093 25.7442 68.0935 25.9084 68.0941C26.3021 68.0957 26.6959 68.0978 27.0897 68.1005C27.0992 67.9415 27.0992 67.9415 27.109 67.7792C27.1831 66.6413 27.3003 65.5145 27.4442 64.3836C27.48 64.1017 27.5147 63.8196 27.5493 63.5375C27.5719 63.3573 27.5946 63.177 27.6173 62.9967C27.6376 62.8355 27.6578 62.6744 27.6787 62.5083C27.7391 62.1261 27.7391 62.1261 27.869 61.8664C27.7636 61.8669 27.6583 61.8673 27.5497 61.8678C24.9838 61.8793 22.4179 61.8879 19.852 61.8933C18.6111 61.896 17.3702 61.8996 16.1294 61.9056C15.0476 61.9108 13.9658 61.9141 12.884 61.9153C12.3114 61.9159 11.7389 61.9175 11.1663 61.9213C10.6268 61.9249 10.0873 61.9259 9.54775 61.9251C9.35033 61.9253 9.15289 61.9263 8.95547 61.9283C7.88888 61.9386 6.98647 61.9077 6.04937 61.3469C5.94574 61.2889 5.8421 61.231 5.73533 61.1713C4.91738 60.5827 4.3013 59.7513 4.10119 58.7493C4.08899 58.5127 4.08374 58.2756 4.08304 58.0387C4.0823 57.8934 4.08156 57.7481 4.0808 57.5984C4.08064 57.4387 4.08049 57.2791 4.08033 57.1146C4.07967 56.945 4.07901 56.7754 4.07833 56.6007C4.07652 56.1296 4.07554 55.6584 4.0747 55.1872C4.07387 54.7832 4.07256 54.3792 4.07125 53.9751C4.06692 52.644 4.06412 51.3128 4.06174 49.9816C4.06112 49.6348 4.06047 49.2881 4.05982 48.9414C4.05579 46.7876 4.05233 44.6339 4.05015 42.4801C4.04964 41.9813 4.04912 41.4825 4.04859 40.9836C4.04846 40.8597 4.04833 40.7357 4.04819 40.608C4.04599 38.6005 4.04065 26.5931 4.03404 24.5857C4.02731 22.5239 4.02353 20.4622 4.02259 18.4004C4.02199 17.2432 4.02008 16.0859 4.01483 14.9286C4.01037 13.9428 4.00857 12.957 4.01021 11.9712C4.01097 11.4686 4.01048 10.966 4.00655 10.4634C4.00232 9.91738 4.00419 9.37152 4.00661 8.82547C4.00443 8.66815 4.00225 8.51082 4 8.34873C4.01324 7.14739 4.33247 6.15168 5.11537 5.22105C6.42494 3.9731 7.95055 3.99674 9.65356 4.00567ZM6.3903 7.04257C6.07103 7.65655 6.03323 8.25295 6.0323 8.93694C6.0318 9.0753 6.0313 9.21367 6.03079 9.35622C6.0309 9.50678 6.03102 9.65734 6.03113 9.81246C6.03075 9.97353 6.03036 10.1346 6.02996 10.3006C6.02903 10.7467 6.02868 11.1928 6.02859 11.639C6.02835 12.1205 6.02736 12.6021 6.02649 13.0836C6.02473 14.136 6.02394 15.1885 6.02337 16.2409C6.02301 16.8982 6.02246 17.5556 6.02188 18.2129C6.02029 20.0336 6.01896 21.8542 6.01852 23.6748C6.01849 23.7913 6.01846 23.9077 6.01843 24.0277C6.0184 24.1445 6.01837 24.2612 6.01835 24.3815C6.01829 24.618 6.01823 24.8545 6.01817 25.0911C6.01814 25.2084 6.01811 25.3257 6.01808 25.4466C6.01757 27.3481 6.0153 39.2495 6.01228 41.1509C6.0092 43.1039 6.00758 45.0569 6.00743 47.0099C6.00731 48.1061 6.00657 49.2023 6.00421 50.2985C6.0022 51.2319 6.00154 52.1652 6.00261 53.0985C6.00312 53.5745 6.003 54.0505 6.00118 54.5265C5.99922 55.043 6.00029 55.5595 6.00164 56.0761C6.0006 56.2258 5.99955 56.3755 5.99847 56.5297C6.00476 57.5532 6.08494 58.4525 6.75559 59.2607C7.36836 59.7539 7.81994 59.8262 8.59793 59.8221C8.69865 59.8226 8.79937 59.8231 8.90314 59.8236C9.24265 59.825 9.58214 59.8245 9.92165 59.824C10.1667 59.8245 10.4118 59.8252 10.6569 59.826C11.3319 59.8279 12.0069 59.8281 12.682 59.828C13.4094 59.8282 14.1368 59.8299 14.8642 59.8314C16.4555 59.8344 18.0467 59.8354 19.638 59.8361C20.6312 59.8365 21.6244 59.8373 22.6176 59.8383C25.3665 59.8408 28.1153 59.843 30.8641 59.8433C30.9521 59.8433 31.04 59.8434 31.1306 59.8434C31.487 59.8434 31.8434 59.8435 32.1998 59.8435C32.468 59.8435 32.7363 59.8436 33.0045 59.8436C33.1374 59.8436 33.1374 59.8436 33.2731 59.8437C36.0581 59.844 38.843 59.8469 41.628 59.8516C44.7561 59.8569 47.8842 59.86 51.0124 59.86C52.6689 59.8601 54.3255 59.8612 55.982 59.865C57.3925 59.8681 58.8029 59.8691 60.2134 59.8671C60.9332 59.8662 61.653 59.8663 62.3728 59.8693C63.0317 59.8719 63.6905 59.8716 64.3494 59.8689C64.5878 59.8684 64.8262 59.8691 65.0647 59.8709C66.7203 59.9153 66.7203 59.9153 68.1313 59.139C68.5671 58.4643 68.6669 57.8079 68.6675 57.0167C68.6679 56.8785 68.6684 56.7403 68.6688 56.598C68.6686 56.4469 68.6684 56.2959 68.6682 56.1403C68.6685 55.9793 68.6688 55.8182 68.6691 55.6523C68.6698 55.2056 68.6699 54.7589 68.6697 54.3122C68.6697 53.8303 68.6704 53.3484 68.671 52.8665C68.6721 51.9225 68.6724 50.9785 68.6725 50.0345C68.6726 49.2671 68.6728 48.4997 68.6733 47.7324C68.6744 45.5566 68.675 43.3808 68.6749 41.205C68.6749 41.0878 68.6749 40.9705 68.6749 40.8496C68.6749 40.7322 68.6749 40.6147 68.6749 40.4937C68.6748 38.5905 68.6761 26.6873 68.6779 24.7841C68.6798 22.8298 68.6807 20.8755 68.6805 18.9212C68.6805 17.824 68.6809 16.7269 68.6823 15.6297C68.6834 14.6956 68.6837 13.7614 68.6828 12.8273C68.6824 12.3508 68.6824 11.8743 68.6835 11.3978C68.6847 10.8809 68.6839 10.3641 68.6829 9.84719C68.6839 9.62196 68.6839 9.62196 68.685 9.39218C68.681 8.47089 68.6635 7.6266 68.1638 6.82341C67.5381 6.21515 66.9167 6.09232 66.0699 6.10028C65.9689 6.09967 65.8678 6.09906 65.7637 6.09844C65.4246 6.09689 65.0855 6.09811 64.7464 6.09932C64.501 6.09878 64.2557 6.09807 64.0103 6.0972C63.3356 6.09532 62.6609 6.09587 61.9862 6.09683C61.2587 6.09744 60.5312 6.09582 59.8037 6.09449C58.3783 6.09226 56.953 6.09215 55.5277 6.09283C54.3694 6.09336 53.2111 6.09317 52.0529 6.09247C51.8881 6.09238 51.7234 6.09228 51.5537 6.09218C51.2191 6.09198 50.8845 6.09178 50.5499 6.09158C48.3026 6.0903 46.0553 6.08976 43.808 6.09075C43.7201 6.09079 43.6322 6.09083 43.5417 6.09087C42.828 6.09119 42.1143 6.09153 41.4005 6.09187C38.6164 6.09318 35.8323 6.09209 33.0482 6.08908C29.9204 6.08569 26.7927 6.08403 23.665 6.08494C22.0088 6.0854 20.3527 6.0851 18.6965 6.08283C17.2867 6.08092 15.8768 6.08083 14.467 6.0831C13.7475 6.08421 13.028 6.08448 12.3084 6.0825C11.65 6.08071 10.9916 6.08131 10.3331 6.08383C10.0947 6.08432 9.85626 6.08393 9.61784 6.08258C9.29403 6.08088 8.97039 6.08237 8.6466 6.08466C8.55377 6.0834 8.46095 6.08215 8.36532 6.08086C7.50964 6.09331 6.93684 6.38098 6.3903 7.04257ZM29.947 61.8664C29.7267 63.2933 29.5186 64.7198 29.3382 66.1523C29.3212 66.2863 29.3041 66.4204 29.2866 66.5584C29.271 66.6843 29.2554 66.8101 29.2393 66.9397C29.2254 67.051 29.2116 67.1624 29.1973 67.2771C29.1594 67.6163 29.1594 67.6163 29.1677 68.1005C34.5681 68.1005 39.9684 68.1005 45.5324 68.1005C45.3201 65.9549 45.3201 65.9549 45.0698 63.8145C45.0453 63.6156 45.0453 63.6156 45.0203 63.4127C45.0043 63.2855 44.9883 63.1583 44.9718 63.0272C44.9578 62.9158 44.9439 62.8045 44.9294 62.6898C44.882 62.3474 44.882 62.3474 44.7532 61.8664C43.596 61.8664 42.4387 61.8664 41.2465 61.8664C41.1768 62.1637 41.1072 62.4611 41.0354 62.7674C40.74 63.9202 40.2917 64.8189 39.2861 65.5065C38.3069 66.0061 37.1504 66.0825 36.0904 65.7987C34.899 65.2991 34.3404 64.5937 33.8434 63.4249C33.7148 62.9106 33.5862 62.3963 33.4537 61.8664C32.2965 61.8664 31.1393 61.8664 29.947 61.8664ZM35.5318 61.8664C35.8321 63.0673 35.8321 63.0673 36.5708 63.8145C36.9904 64.0243 37.4148 64.0004 37.8696 63.9444C38.3667 63.7437 38.5838 63.5636 38.8122 63.0769C39.0597 62.4874 39.0597 62.4874 39.1684 61.8664C37.9683 61.8664 36.7682 61.8664 35.5318 61.8664Z" fill="white"/>
<path d="M9.65356 4.00567C9.90234 4.00507 10.1511 4.00424 10.3999 4.00321C11.0815 4.00105 11.7632 4.00211 12.4449 4.00373C13.1808 4.0049 13.9166 4.00309 14.6525 4.00166C16.0934 3.99935 17.5343 3.99985 18.9751 4.00135C20.1462 4.00253 21.3173 4.00268 22.4883 4.00212C22.655 4.00204 22.8217 4.00196 22.9935 4.00188C23.3322 4.00171 23.6708 4.00154 24.0095 4.00137C27.0942 3.99993 30.1789 4.00143 33.2637 4.00415C36.0784 4.00661 38.8931 4.00639 41.7079 4.00391C44.8718 4.00113 48.0357 4.00003 51.1996 4.00163C51.537 4.00179 51.8744 4.00196 52.2119 4.00212C52.4609 4.00224 52.4609 4.00224 52.7149 4.00236C53.8845 4.00281 55.0541 4.00205 56.2237 4.00083C57.6492 3.99937 59.0746 3.99977 60.5 4.00253C61.2272 4.0039 61.9544 4.00444 62.6816 4.00272C63.3476 4.00117 64.0134 4.00202 64.6793 4.00478C64.92 4.00536 65.1607 4.00507 65.4014 4.00381C67.0227 3.99597 68.355 4.0792 69.5914 5.24053C70.2874 6.03233 70.6145 6.85293 70.6164 7.89805C70.617 8.04306 70.6176 8.18806 70.6182 8.33746C70.6181 8.57643 70.6181 8.57643 70.6181 8.82022C70.6186 8.98947 70.6191 9.15871 70.6196 9.33308C70.6209 9.80325 70.6213 10.2734 70.6217 10.7436C70.6222 11.2506 70.6234 11.7575 70.6246 12.2645C70.6271 13.489 70.6285 14.7135 70.6296 15.938C70.6302 16.5147 70.6309 17.0915 70.6315 17.6683C70.6338 19.5857 70.6356 21.5031 70.6366 23.4206C70.6368 23.9181 70.6371 24.4156 70.6373 24.9132C70.6374 25.0368 70.6375 25.1605 70.6375 25.2879C70.6386 27.2909 70.6419 39.2938 70.6461 41.2968C70.6504 43.3536 70.6527 45.4103 70.6532 47.4671C70.6534 48.6217 70.6546 49.7764 70.6579 50.931C70.6607 51.9144 70.6618 52.8978 70.6605 53.8812C70.6599 54.3827 70.6601 54.8842 70.6627 55.3857C70.6654 55.9301 70.6641 56.4744 70.6623 57.0188C70.6645 57.2552 70.6645 57.2552 70.6667 57.4963C70.6571 58.7538 70.3974 59.8204 69.5214 60.7584C68.6685 61.5252 67.7552 61.8994 66.6042 61.8976C66.4767 61.898 66.4767 61.898 66.3467 61.8983C66.0637 61.8987 65.7808 61.8973 65.4978 61.8959C65.2942 61.8958 65.0906 61.8958 64.8871 61.896C64.3357 61.8961 63.7843 61.8945 63.2329 61.8927C62.6562 61.8911 62.0795 61.8909 61.5028 61.8906C60.4113 61.8898 59.3198 61.8877 58.2283 61.8851C56.9855 61.8822 55.7426 61.8808 54.4997 61.8795C51.9436 61.8767 49.3874 61.8722 46.8312 61.8664C46.8491 61.9541 46.8669 62.0419 46.8853 62.1323C46.9205 62.3061 46.9205 62.3061 46.9563 62.4835C46.9911 62.6553 46.9911 62.6553 47.0266 62.8306C47.1126 63.2773 47.1733 63.7223 47.23 64.1737C47.2412 64.2623 47.2523 64.3509 47.2638 64.4421C47.287 64.6267 47.3099 64.8113 47.3325 64.996C47.3671 65.277 47.4028 65.5579 47.4385 65.8388C47.4611 66.0197 47.4836 66.2007 47.506 66.3816C47.5261 66.5434 47.5462 66.7052 47.5669 66.8718C47.607 67.2851 47.6187 67.6857 47.6105 68.1005C47.7087 68.0984 47.8069 68.0964 47.9081 68.0943C48.3555 68.0862 48.8028 68.0811 49.2502 68.0761C49.482 68.0712 49.482 68.0712 49.7185 68.0662C51.1649 68.0541 51.1649 68.0541 51.7666 68.4901C51.9674 68.8917 51.9346 69.2167 51.8965 69.659C51.7044 69.9441 51.7044 69.9441 51.377 70.1785C50.9864 70.2295 50.6435 70.2487 50.253 70.2445C50.081 70.2457 50.081 70.2457 49.9056 70.2469C49.5207 70.249 49.1359 70.2474 48.751 70.2457C48.4754 70.2464 48.1997 70.2474 47.9241 70.2485C47.1749 70.2509 46.4257 70.2499 45.6765 70.2483C44.8933 70.247 44.11 70.2482 43.3268 70.249C42.0113 70.25 40.6959 70.2487 39.3805 70.2462C37.8586 70.2434 36.3368 70.2443 34.8149 70.2472C33.5094 70.2495 32.2039 70.2499 30.8984 70.2485C30.1181 70.2477 29.3379 70.2476 28.5577 70.2493C27.8243 70.2508 27.0909 70.2498 26.3574 70.2468C26.0879 70.2461 25.8184 70.2463 25.5488 70.2474C25.1816 70.2488 24.8145 70.2471 24.4472 70.2445C24.2863 70.2462 24.2863 70.2462 24.1221 70.248C23.6579 70.2416 23.3786 70.2186 22.9973 69.9431C22.7129 69.5257 22.7333 69.2427 22.8037 68.7499C23.0919 68.3723 23.2608 68.2512 23.7129 68.1005C23.9716 68.0897 24.2306 68.0865 24.4896 68.0878C24.6407 68.0882 24.7918 68.0886 24.9475 68.0891C25.1053 68.0902 25.263 68.0912 25.4256 68.0924C25.5849 68.093 25.7442 68.0935 25.9084 68.0941C26.3021 68.0957 26.6959 68.0978 27.0897 68.1005C27.0992 67.9415 27.0992 67.9415 27.109 67.7792C27.1831 66.6413 27.3003 65.5145 27.4442 64.3836C27.48 64.1017 27.5147 63.8196 27.5493 63.5375C27.5719 63.3573 27.5946 63.177 27.6173 62.9967C27.6376 62.8355 27.6578 62.6744 27.6787 62.5083C27.7391 62.1261 27.7391 62.1261 27.869 61.8664C27.7636 61.8669 27.6583 61.8673 27.5497 61.8678C24.9838 61.8793 22.4179 61.8879 19.852 61.8933C18.6111 61.896 17.3702 61.8996 16.1294 61.9056C15.0476 61.9108 13.9658 61.9141 12.884 61.9153C12.3114 61.9159 11.7389 61.9175 11.1663 61.9213C10.6268 61.9249 10.0873 61.9259 9.54775 61.9251C9.35033 61.9253 9.15289 61.9263 8.95547 61.9283C7.88888 61.9386 6.98647 61.9077 6.04937 61.3469C5.94574 61.2889 5.8421 61.231 5.73533 61.1713C4.91738 60.5827 4.3013 59.7513 4.10119 58.7493C4.08899 58.5127 4.08374 58.2756 4.08304 58.0387C4.0823 57.8934 4.08156 57.7481 4.0808 57.5984C4.08064 57.4387 4.08049 57.2791 4.08033 57.1146C4.07967 56.945 4.07901 56.7754 4.07833 56.6007C4.07652 56.1296 4.07554 55.6584 4.0747 55.1872C4.07387 54.7832 4.07256 54.3792 4.07125 53.9751C4.06692 52.644 4.06412 51.3128 4.06174 49.9816C4.06112 49.6348 4.06047 49.2881 4.05982 48.9414C4.05579 46.7876 4.05233 44.6339 4.05015 42.4801C4.04964 41.9813 4.04912 41.4825 4.04859 40.9836C4.04846 40.8597 4.04833 40.7357 4.04819 40.608C4.04599 38.6005 4.04065 26.5931 4.03404 24.5857C4.02731 22.5239 4.02353 20.4622 4.02259 18.4004C4.02199 17.2432 4.02008 16.0859 4.01483 14.9286C4.01037 13.9428 4.00857 12.957 4.01021 11.9712C4.01097 11.4686 4.01048 10.966 4.00655 10.4634C4.00232 9.91738 4.00419 9.37152 4.00661 8.82547C4.00443 8.66815 4.00225 8.51082 4 8.34873C4.01324 7.14739 4.33247 6.15168 5.11537 5.22105C6.42494 3.9731 7.95055 3.99674 9.65356 4.00567ZM6.3903 7.04257C6.07103 7.65655 6.03323 8.25295 6.0323 8.93694C6.0318 9.0753 6.0313 9.21367 6.03079 9.35622C6.0309 9.50678 6.03102 9.65734 6.03113 9.81246C6.03075 9.97353 6.03036 10.1346 6.02996 10.3006C6.02903 10.7467 6.02868 11.1928 6.02859 11.639C6.02835 12.1205 6.02736 12.6021 6.02649 13.0836C6.02473 14.136 6.02394 15.1885 6.02337 16.2409C6.02301 16.8982 6.02246 17.5556 6.02188 18.2129C6.02029 20.0336 6.01896 21.8542 6.01852 23.6748C6.01849 23.7913 6.01846 23.9077 6.01843 24.0277C6.0184 24.1445 6.01837 24.2612 6.01835 24.3815C6.01829 24.618 6.01823 24.8545 6.01817 25.0911C6.01814 25.2084 6.01811 25.3257 6.01808 25.4466C6.01757 27.3481 6.0153 39.2495 6.01228 41.1509C6.0092 43.1039 6.00758 45.0569 6.00743 47.0099C6.00731 48.1061 6.00657 49.2023 6.00421 50.2985C6.0022 51.2319 6.00154 52.1652 6.00261 53.0985C6.00312 53.5745 6.003 54.0505 6.00118 54.5265C5.99922 55.043 6.00029 55.5595 6.00164 56.0761C6.0006 56.2258 5.99955 56.3755 5.99847 56.5297C6.00476 57.5532 6.08494 58.4525 6.75559 59.2607C7.36836 59.7539 7.81994 59.8262 8.59793 59.8221C8.69865 59.8226 8.79937 59.8231 8.90314 59.8236C9.24265 59.825 9.58214 59.8245 9.92165 59.824C10.1667 59.8245 10.4118 59.8252 10.6569 59.826C11.3319 59.8279 12.0069 59.8281 12.682 59.828C13.4094 59.8282 14.1368 59.8299 14.8642 59.8314C16.4555 59.8344 18.0467 59.8354 19.638 59.8361C20.6312 59.8365 21.6244 59.8373 22.6176 59.8383C25.3665 59.8408 28.1153 59.843 30.8641 59.8433C30.9521 59.8433 31.04 59.8434 31.1306 59.8434C31.487 59.8434 31.8434 59.8435 32.1998 59.8435C32.468 59.8435 32.7363 59.8436 33.0045 59.8436C33.1374 59.8436 33.1374 59.8436 33.2731 59.8437C36.0581 59.844 38.843 59.8469 41.628 59.8516C44.7561 59.8569 47.8842 59.86 51.0124 59.86C52.6689 59.8601 54.3255 59.8612 55.982 59.865C57.3925 59.8681 58.8029 59.8691 60.2134 59.8671C60.9332 59.8662 61.653 59.8663 62.3728 59.8693C63.0317 59.8719 63.6905 59.8716 64.3494 59.8689C64.5878 59.8684 64.8262 59.8691 65.0647 59.8709C66.7203 59.9153 66.7203 59.9153 68.1313 59.139C68.5671 58.4643 68.6669 57.8079 68.6675 57.0167C68.6679 56.8785 68.6684 56.7403 68.6688 56.598C68.6686 56.4469 68.6684 56.2959 68.6682 56.1403C68.6685 55.9793 68.6688 55.8182 68.6691 55.6523C68.6698 55.2056 68.6699 54.7589 68.6697 54.3122C68.6697 53.8303 68.6704 53.3484 68.671 52.8665C68.6721 51.9225 68.6724 50.9785 68.6725 50.0345C68.6726 49.2671 68.6728 48.4997 68.6733 47.7324C68.6744 45.5566 68.675 43.3808 68.6749 41.205C68.6749 41.0878 68.6749 40.9705 68.6749 40.8496C68.6749 40.7322 68.6749 40.6147 68.6749 40.4937C68.6748 38.5905 68.6761 26.6873 68.6779 24.7841C68.6798 22.8298 68.6807 20.8755 68.6805 18.9212C68.6805 17.824 68.6809 16.7269 68.6823 15.6297C68.6834 14.6956 68.6837 13.7614 68.6828 12.8273C68.6824 12.3508 68.6824 11.8743 68.6835 11.3978C68.6847 10.8809 68.6839 10.3641 68.6829 9.84719C68.6839 9.62196 68.6839 9.62196 68.685 9.39218C68.681 8.47089 68.6635 7.6266 68.1638 6.82341C67.5381 6.21515 66.9167 6.09232 66.0699 6.10028C65.9689 6.09967 65.8678 6.09906 65.7637 6.09844C65.4246 6.09689 65.0855 6.09811 64.7464 6.09932C64.501 6.09878 64.2557 6.09807 64.0103 6.0972C63.3356 6.09532 62.6609 6.09587 61.9862 6.09683C61.2587 6.09744 60.5312 6.09582 59.8037 6.09449C58.3783 6.09226 56.953 6.09215 55.5277 6.09283C54.3694 6.09336 53.2111 6.09317 52.0529 6.09247C51.8881 6.09238 51.7234 6.09228 51.5537 6.09218C51.2191 6.09198 50.8845 6.09178 50.5499 6.09158C48.3026 6.0903 46.0553 6.08976 43.808 6.09075C43.7201 6.09079 43.6322 6.09083 43.5417 6.09087C42.828 6.09119 42.1143 6.09153 41.4005 6.09187C38.6164 6.09318 35.8323 6.09209 33.0482 6.08908C29.9204 6.08569 26.7927 6.08403 23.665 6.08494C22.0088 6.0854 20.3527 6.0851 18.6965 6.08283C17.2867 6.08092 15.8768 6.08083 14.467 6.0831C13.7475 6.08421 13.028 6.08448 12.3084 6.0825C11.65 6.08071 10.9916 6.08131 10.3331 6.08383C10.0947 6.08432 9.85626 6.08393 9.61784 6.08258C9.29403 6.08088 8.97039 6.08237 8.6466 6.08466C8.55377 6.0834 8.46095 6.08215 8.36532 6.08086C7.50964 6.09331 6.93684 6.38098 6.3903 7.04257ZM29.947 61.8664C29.7267 63.2933 29.5186 64.7198 29.3382 66.1523C29.3212 66.2863 29.3041 66.4204 29.2866 66.5584C29.271 66.6843 29.2554 66.8101 29.2393 66.9397C29.2254 67.051 29.2116 67.1624 29.1973 67.2771C29.1594 67.6163 29.1594 67.6163 29.1677 68.1005C34.5681 68.1005 39.9684 68.1005 45.5324 68.1005C45.3201 65.9549 45.3201 65.9549 45.0698 63.8145C45.0453 63.6156 45.0453 63.6156 45.0203 63.4127C45.0043 63.2855 44.9883 63.1583 44.9718 63.0272C44.9578 62.9158 44.9439 62.8045 44.9294 62.6898C44.882 62.3474 44.882 62.3474 44.7532 61.8664C43.596 61.8664 42.4387 61.8664 41.2465 61.8664C41.1768 62.1637 41.1072 62.4611 41.0354 62.7674C40.74 63.9202 40.2917 64.8189 39.2861 65.5065C38.3069 66.0061 37.1504 66.0825 36.0904 65.7987C34.899 65.2991 34.3404 64.5937 33.8434 63.4249C33.7148 62.9106 33.5862 62.3963 33.4537 61.8664C32.2965 61.8664 31.1393 61.8664 29.947 61.8664ZM35.5318 61.8664C35.8321 63.0673 35.8321 63.0673 36.5708 63.8145C36.9904 64.0243 37.4148 64.0004 37.8696 63.9444C38.3667 63.7437 38.5838 63.5636 38.8122 63.0769C39.0597 62.4874 39.0597 62.4874 39.1684 61.8664C37.9683 61.8664 36.7682 61.8664 35.5318 61.8664Z" stroke="white" stroke-width="0.4" mask="url(#path-3-outside-1_13687_32179)"/>
<mask id="path-4-outside-2_13687_32179" maskUnits="userSpaceOnUse" x="20.707" y="18.418" width="31" height="29" fill="black">
<rect fill="white" x="20.707" y="18.418" width="31" height="29"/>
<path d="M23.1684 19.4516C23.536 19.6102 23.859 19.8205 24.1907 20.0432C24.2816 20.1022 24.3724 20.1613 24.466 20.2221C26.3993 21.4925 26.3993 21.4925 26.9333 22.3041C26.9333 22.3897 26.9333 22.4752 26.9333 22.5634C27.0501 22.5625 27.167 22.5615 27.2873 22.5605C28.5032 22.5551 29.7137 22.5884 30.9284 22.6447C31.1249 22.6534 31.3213 22.6622 31.5177 22.6709C32.0448 22.6943 32.5718 22.7183 33.0988 22.7424C33.6535 22.7677 34.2083 22.7926 34.763 22.8175C35.6933 22.8594 36.6235 22.9016 37.5538 22.944C38.6264 22.993 39.6991 23.0414 40.7718 23.0894C41.8084 23.1359 42.8451 23.1828 43.8817 23.2298C44.3209 23.2497 44.7601 23.2695 45.1993 23.2892C45.7167 23.3124 46.2341 23.336 46.7514 23.3598C46.9403 23.3684 47.1293 23.3769 47.3182 23.3853C50.1519 23.5114 50.1519 23.5114 50.6428 23.8032C51.1616 24.7217 50.6717 26.0591 50.475 27.0274C50.4386 27.2089 50.4024 27.3904 50.3661 27.5718C50.2901 27.951 50.2133 28.33 50.1359 28.7089C50.0377 29.1909 49.942 29.6734 49.8471 30.156C49.7729 30.5307 49.6971 30.9051 49.6208 31.2793C49.5849 31.4569 49.5495 31.6346 49.5148 31.8124C49.2642 33.0904 48.9733 34.4324 47.9408 35.3184C47.8533 35.397 47.7658 35.4755 47.6756 35.5564C46.7553 36.1501 45.7763 36.3895 44.6997 36.5067C44.5749 36.5217 44.4502 36.5368 44.3216 36.5523C43.9132 36.6011 43.5044 36.6473 43.0957 36.6935C42.8085 36.7272 42.5213 36.761 42.2342 36.795C41.6335 36.8657 41.0327 36.9352 40.4317 37.0038C39.6668 37.0911 38.9022 37.1804 38.1376 37.2705C37.4021 37.3571 36.6665 37.4427 35.9309 37.5281C35.7932 37.5442 35.6555 37.5603 35.5136 37.5769C35.2458 37.6081 34.9779 37.6389 34.7099 37.6694C34.4563 37.6985 34.2027 37.7286 33.9493 37.7599C33.3899 37.8258 32.8555 37.8711 32.2924 37.8394C31.7666 37.8155 31.3315 37.8092 30.8281 37.9926C30.3013 38.5792 30.0416 39.3325 29.7895 40.0671C29.9301 40.0672 29.9301 40.0672 30.0736 40.0673C32.3544 40.0692 34.6352 40.0747 36.9161 40.0842C38.0191 40.0887 39.1221 40.092 40.2251 40.0924C41.1864 40.0928 42.1478 40.0955 43.1091 40.1009C43.6182 40.1036 44.1272 40.1053 44.6362 40.1042C45.1155 40.1032 45.5946 40.1053 46.0738 40.1096C46.3334 40.1112 46.593 40.1096 46.8525 40.1078C48.1215 40.1241 48.1215 40.1241 48.5261 40.4968C48.8076 40.9464 48.8021 41.2313 48.7441 41.7526C48.7013 41.881 48.6584 42.0093 48.6143 42.1416C48.6571 42.2699 48.7 42.3983 48.7441 42.5306C48.8596 43.6134 48.7541 44.4937 48.095 45.383C47.396 46.0614 46.6535 46.4547 45.6689 46.477C44.7281 46.4573 43.9767 46.2015 43.3066 45.5253C42.5938 44.6294 42.4289 43.7871 42.5125 42.6602C42.5553 42.5319 42.5981 42.4035 42.6423 42.2712C39.8147 42.2712 36.9871 42.2712 34.0738 42.2712C34.1166 42.3996 34.1594 42.528 34.2036 42.6602C34.3266 43.7758 34.0329 44.5345 33.4733 45.4803C32.7889 46.1278 32.0312 46.4588 31.0878 46.5013C30.1739 46.4567 29.4111 46.1837 28.7661 45.5208C28.0494 44.6079 27.8749 43.8093 27.9719 42.6602C28.0282 42.5238 28.0844 42.3874 28.1423 42.2469C28.2722 41.8944 28.2722 41.8944 28.1043 41.6508C28.0445 41.5667 27.9848 41.4827 27.9232 41.3961C27.4955 40.785 27.4729 40.2765 27.5824 39.5485C27.7574 39.0765 27.9911 38.6483 28.2397 38.2114C28.3646 37.9886 28.4879 37.7649 28.6094 37.5403C28.6645 37.4433 28.7195 37.3463 28.7763 37.2464C28.967 36.7149 28.7288 36.2215 28.5292 35.7167C28.155 34.7084 27.881 33.6726 27.5954 32.6368C27.4918 32.2616 27.3872 31.8866 27.2823 31.5118C26.9843 30.4471 26.687 29.3822 26.3931 28.3164C26.2125 27.6618 26.0298 27.0079 25.8458 26.3543C25.7763 26.1061 25.7076 25.8577 25.6398 25.609C25.5449 25.2619 25.4474 24.9156 25.3493 24.5693C25.3221 24.4672 25.2949 24.3651 25.2669 24.2599C25.0147 23.3887 24.5326 22.919 23.7713 22.4327C23.6181 22.3332 23.6181 22.3332 23.4617 22.2317C23.3569 22.1646 23.252 22.0976 23.144 22.0286C22.9334 21.8939 22.7233 21.7585 22.5137 21.6224C22.4212 21.5634 22.3288 21.5043 22.2336 21.4435C21.9999 21.2668 21.9999 21.2668 21.7403 20.8779C21.6854 20.3757 21.6667 20.0849 21.9431 19.6542C22.3858 19.3708 22.6464 19.3997 23.1684 19.4516ZM27.5824 24.6379C27.9171 26.0418 28.3086 27.4128 28.7509 28.7869C29.822 28.7869 30.893 28.7869 31.9965 28.7869C31.7823 27.4605 31.5681 26.1342 31.3474 24.7676C29.4663 24.6525 29.4663 24.6525 27.5824 24.6379ZM33.4246 24.8972C33.4835 25.3224 33.5424 25.7476 33.6031 26.1857C33.6211 26.3172 33.6391 26.4487 33.6576 26.5843C33.6728 26.6919 33.6879 26.7995 33.7036 26.9105C33.7185 27.0184 33.7335 27.1264 33.7489 27.2376C33.8376 27.7578 33.9591 28.2719 34.0738 28.7869C35.1448 28.7869 36.2159 28.7869 37.3194 28.7869C37.3194 27.5461 37.3194 26.3053 37.3194 25.0269C35.3915 24.9627 35.3915 24.9627 33.4246 24.8972ZM39.3966 25.1565C39.3966 26.3546 39.3966 27.5526 39.3966 28.7869C40.5105 28.7869 41.6244 28.7869 42.7721 28.7869C42.815 28.4741 42.8578 28.1612 42.9019 27.8388C42.9155 27.7435 42.9291 27.6482 42.943 27.55C43.0442 26.776 43.0318 26.0875 43.0318 25.2862C41.2324 25.222 41.2324 25.222 39.3966 25.1565ZM45.109 25.4159C45.0233 26.5283 44.9376 27.6408 44.8493 28.7869C45.8776 28.7869 46.9058 28.7869 47.9652 28.7869C48.0508 28.3724 48.1365 27.9579 48.2248 27.5309C48.2655 27.3367 48.2655 27.3367 48.307 27.1385C48.3281 27.0348 48.3491 26.9312 48.3709 26.8244C48.3926 26.7191 48.4144 26.6139 48.4368 26.5054C48.5008 26.1395 48.5008 26.1395 48.4845 25.5455C46.8136 25.4813 46.8136 25.4813 45.109 25.4159ZM29.4 30.8614C29.5792 31.8449 29.822 32.802 30.0978 33.7625C30.1546 33.9698 30.1546 33.9698 30.2124 34.1814C30.2506 34.3142 30.2888 34.4471 30.3281 34.584C30.3618 34.7034 30.3955 34.8228 30.4302 34.9458C30.6204 35.3916 30.8826 35.7008 31.3332 35.8932C31.6929 35.9258 32 35.868 32.3536 35.7965C32.5808 35.7506 32.808 35.7047 33.0351 35.6587C32.9616 34.58 32.8282 33.5234 32.6457 32.4578C32.6226 32.3175 32.5995 32.1772 32.5757 32.0327C32.5222 31.3997 32.5222 31.3997 32.2562 30.8614C32.044 30.8502 31.8313 30.8476 31.6187 30.8488C31.4261 30.8494 31.4261 30.8494 31.2295 30.85C31.0268 30.8517 31.0268 30.8517 30.82 30.8533C30.6165 30.8542 30.6165 30.8542 30.409 30.8551C30.0726 30.8566 29.7363 30.8588 29.4 30.8614ZM34.4632 30.8614C34.545 31.8971 34.6833 32.9094 34.8608 33.9327C34.885 34.0747 34.9092 34.2167 34.9341 34.3629C34.993 34.7085 35.0525 35.054 35.1124 35.3994C35.4559 35.3813 35.7994 35.3622 36.1429 35.3427C36.2408 35.3376 36.3388 35.3325 36.4398 35.3273C36.9195 35.3423 36.9195 35.3423 37.3194 35.1401C37.3309 34.8227 37.3344 34.5089 37.3321 34.1915C37.3319 34.0967 37.3317 34.0019 37.3315 33.9043C37.3308 33.6004 37.3292 33.2965 37.3275 32.9927C37.3269 32.7871 37.3263 32.5816 37.3258 32.376C37.3244 31.8712 37.3219 31.3663 37.3194 30.8614C36.3769 30.8614 35.4343 30.8614 34.4632 30.8614ZM39.3966 30.8614C39.3966 32.1878 39.3966 33.5142 39.3966 34.8808C39.7474 34.8621 40.0982 34.8434 40.4596 34.8241C40.5689 34.8185 40.6782 34.8129 40.7908 34.8071C40.9228 34.7997 40.9228 34.7997 41.0575 34.7922C41.1466 34.7874 41.2356 34.7827 41.3274 34.7778C41.6417 34.7475 41.9442 34.6876 42.2528 34.6215C42.3084 34.1069 42.3638 33.5922 42.4192 33.0775C42.4381 32.9023 42.457 32.7271 42.4759 32.552C42.503 32.3006 42.5301 32.0493 42.5571 31.7979C42.5816 31.5708 42.5816 31.5708 42.6065 31.3391C42.6326 31.1007 42.6326 31.1007 42.6423 30.8614C41.5712 30.8614 40.5002 30.8614 39.3966 30.8614ZM44.7195 30.8614C44.5904 31.2482 44.5524 31.5641 44.5202 31.9691C44.5089 32.1082 44.4976 32.2474 44.486 32.3907C44.4747 32.5359 44.4634 32.681 44.4517 32.8306C44.4399 32.9773 44.4281 33.1239 44.416 33.275C44.3869 33.6374 44.3583 33.9998 44.33 34.3622C44.5375 34.3445 44.7449 34.3259 44.9523 34.307C45.0678 34.2967 45.1833 34.2865 45.3023 34.2759C45.9821 34.1854 46.4898 33.8754 46.9134 33.3351C47.3067 32.594 47.4459 31.6915 47.4459 30.8614C46.5462 30.8614 45.6465 30.8614 44.7195 30.8614ZM30.3088 42.5306C30.0043 42.9867 29.9739 43.1604 30.0491 43.6975C30.3719 44.1336 30.5573 44.3199 31.0959 44.4187C31.5697 44.3281 31.7181 44.2184 31.9965 43.8271C32.1477 43.4507 32.1477 43.4507 32.1264 43.0492C31.8741 42.5957 31.7156 42.4348 31.2176 42.2793C30.811 42.2709 30.6362 42.297 30.3088 42.5306ZM45.0035 42.4738C44.6628 42.853 44.6002 43.062 44.5897 43.5678C44.7351 44.0035 44.8422 44.0817 45.2388 44.3458C45.6172 44.4215 45.6172 44.4215 46.0178 44.3458C46.4544 44.0234 46.641 43.8382 46.7399 43.3004C46.6492 42.8271 46.5394 42.6789 46.1476 42.4009C45.6521 42.2324 45.465 42.2178 45.0035 42.4738Z"/>
</mask>
<path d="M23.1684 19.4516C23.536 19.6102 23.859 19.8205 24.1907 20.0432C24.2816 20.1022 24.3724 20.1613 24.466 20.2221C26.3993 21.4925 26.3993 21.4925 26.9333 22.3041C26.9333 22.3897 26.9333 22.4752 26.9333 22.5634C27.0501 22.5625 27.167 22.5615 27.2873 22.5605C28.5032 22.5551 29.7137 22.5884 30.9284 22.6447C31.1249 22.6534 31.3213 22.6622 31.5177 22.6709C32.0448 22.6943 32.5718 22.7183 33.0988 22.7424C33.6535 22.7677 34.2083 22.7926 34.763 22.8175C35.6933 22.8594 36.6235 22.9016 37.5538 22.944C38.6264 22.993 39.6991 23.0414 40.7718 23.0894C41.8084 23.1359 42.8451 23.1828 43.8817 23.2298C44.3209 23.2497 44.7601 23.2695 45.1993 23.2892C45.7167 23.3124 46.2341 23.336 46.7514 23.3598C46.9403 23.3684 47.1293 23.3769 47.3182 23.3853C50.1519 23.5114 50.1519 23.5114 50.6428 23.8032C51.1616 24.7217 50.6717 26.0591 50.475 27.0274C50.4386 27.2089 50.4024 27.3904 50.3661 27.5718C50.2901 27.951 50.2133 28.33 50.1359 28.7089C50.0377 29.1909 49.942 29.6734 49.8471 30.156C49.7729 30.5307 49.6971 30.9051 49.6208 31.2793C49.5849 31.4569 49.5495 31.6346 49.5148 31.8124C49.2642 33.0904 48.9733 34.4324 47.9408 35.3184C47.8533 35.397 47.7658 35.4755 47.6756 35.5564C46.7553 36.1501 45.7763 36.3895 44.6997 36.5067C44.5749 36.5217 44.4502 36.5368 44.3216 36.5523C43.9132 36.6011 43.5044 36.6473 43.0957 36.6935C42.8085 36.7272 42.5213 36.761 42.2342 36.795C41.6335 36.8657 41.0327 36.9352 40.4317 37.0038C39.6668 37.0911 38.9022 37.1804 38.1376 37.2705C37.4021 37.3571 36.6665 37.4427 35.9309 37.5281C35.7932 37.5442 35.6555 37.5603 35.5136 37.5769C35.2458 37.6081 34.9779 37.6389 34.7099 37.6694C34.4563 37.6985 34.2027 37.7286 33.9493 37.7599C33.3899 37.8258 32.8555 37.8711 32.2924 37.8394C31.7666 37.8155 31.3315 37.8092 30.8281 37.9926C30.3013 38.5792 30.0416 39.3325 29.7895 40.0671C29.9301 40.0672 29.9301 40.0672 30.0736 40.0673C32.3544 40.0692 34.6352 40.0747 36.9161 40.0842C38.0191 40.0887 39.1221 40.092 40.2251 40.0924C41.1864 40.0928 42.1478 40.0955 43.1091 40.1009C43.6182 40.1036 44.1272 40.1053 44.6362 40.1042C45.1155 40.1032 45.5946 40.1053 46.0738 40.1096C46.3334 40.1112 46.593 40.1096 46.8525 40.1078C48.1215 40.1241 48.1215 40.1241 48.5261 40.4968C48.8076 40.9464 48.8021 41.2313 48.7441 41.7526C48.7013 41.881 48.6584 42.0093 48.6143 42.1416C48.6571 42.2699 48.7 42.3983 48.7441 42.5306C48.8596 43.6134 48.7541 44.4937 48.095 45.383C47.396 46.0614 46.6535 46.4547 45.6689 46.477C44.7281 46.4573 43.9767 46.2015 43.3066 45.5253C42.5938 44.6294 42.4289 43.7871 42.5125 42.6602C42.5553 42.5319 42.5981 42.4035 42.6423 42.2712C39.8147 42.2712 36.9871 42.2712 34.0738 42.2712C34.1166 42.3996 34.1594 42.528 34.2036 42.6602C34.3266 43.7758 34.0329 44.5345 33.4733 45.4803C32.7889 46.1278 32.0312 46.4588 31.0878 46.5013C30.1739 46.4567 29.4111 46.1837 28.7661 45.5208C28.0494 44.6079 27.8749 43.8093 27.9719 42.6602C28.0282 42.5238 28.0844 42.3874 28.1423 42.2469C28.2722 41.8944 28.2722 41.8944 28.1043 41.6508C28.0445 41.5667 27.9848 41.4827 27.9232 41.3961C27.4955 40.785 27.4729 40.2765 27.5824 39.5485C27.7574 39.0765 27.9911 38.6483 28.2397 38.2114C28.3646 37.9886 28.4879 37.7649 28.6094 37.5403C28.6645 37.4433 28.7195 37.3463 28.7763 37.2464C28.967 36.7149 28.7288 36.2215 28.5292 35.7167C28.155 34.7084 27.881 33.6726 27.5954 32.6368C27.4918 32.2616 27.3872 31.8866 27.2823 31.5118C26.9843 30.4471 26.687 29.3822 26.3931 28.3164C26.2125 27.6618 26.0298 27.0079 25.8458 26.3543C25.7763 26.1061 25.7076 25.8577 25.6398 25.609C25.5449 25.2619 25.4474 24.9156 25.3493 24.5693C25.3221 24.4672 25.2949 24.3651 25.2669 24.2599C25.0147 23.3887 24.5326 22.919 23.7713 22.4327C23.6181 22.3332 23.6181 22.3332 23.4617 22.2317C23.3569 22.1646 23.252 22.0976 23.144 22.0286C22.9334 21.8939 22.7233 21.7585 22.5137 21.6224C22.4212 21.5634 22.3288 21.5043 22.2336 21.4435C21.9999 21.2668 21.9999 21.2668 21.7403 20.8779C21.6854 20.3757 21.6667 20.0849 21.9431 19.6542C22.3858 19.3708 22.6464 19.3997 23.1684 19.4516ZM27.5824 24.6379C27.9171 26.0418 28.3086 27.4128 28.7509 28.7869C29.822 28.7869 30.893 28.7869 31.9965 28.7869C31.7823 27.4605 31.5681 26.1342 31.3474 24.7676C29.4663 24.6525 29.4663 24.6525 27.5824 24.6379ZM33.4246 24.8972C33.4835 25.3224 33.5424 25.7476 33.6031 26.1857C33.6211 26.3172 33.6391 26.4487 33.6576 26.5843C33.6728 26.6919 33.6879 26.7995 33.7036 26.9105C33.7185 27.0184 33.7335 27.1264 33.7489 27.2376C33.8376 27.7578 33.9591 28.2719 34.0738 28.7869C35.1448 28.7869 36.2159 28.7869 37.3194 28.7869C37.3194 27.5461 37.3194 26.3053 37.3194 25.0269C35.3915 24.9627 35.3915 24.9627 33.4246 24.8972ZM39.3966 25.1565C39.3966 26.3546 39.3966 27.5526 39.3966 28.7869C40.5105 28.7869 41.6244 28.7869 42.7721 28.7869C42.815 28.4741 42.8578 28.1612 42.9019 27.8388C42.9155 27.7435 42.9291 27.6482 42.943 27.55C43.0442 26.776 43.0318 26.0875 43.0318 25.2862C41.2324 25.222 41.2324 25.222 39.3966 25.1565ZM45.109 25.4159C45.0233 26.5283 44.9376 27.6408 44.8493 28.7869C45.8776 28.7869 46.9058 28.7869 47.9652 28.7869C48.0508 28.3724 48.1365 27.9579 48.2248 27.5309C48.2655 27.3367 48.2655 27.3367 48.307 27.1385C48.3281 27.0348 48.3491 26.9312 48.3709 26.8244C48.3926 26.7191 48.4144 26.6139 48.4368 26.5054C48.5008 26.1395 48.5008 26.1395 48.4845 25.5455C46.8136 25.4813 46.8136 25.4813 45.109 25.4159ZM29.4 30.8614C29.5792 31.8449 29.822 32.802 30.0978 33.7625C30.1546 33.9698 30.1546 33.9698 30.2124 34.1814C30.2506 34.3142 30.2888 34.4471 30.3281 34.584C30.3618 34.7034 30.3955 34.8228 30.4302 34.9458C30.6204 35.3916 30.8826 35.7008 31.3332 35.8932C31.6929 35.9258 32 35.868 32.3536 35.7965C32.5808 35.7506 32.808 35.7047 33.0351 35.6587C32.9616 34.58 32.8282 33.5234 32.6457 32.4578C32.6226 32.3175 32.5995 32.1772 32.5757 32.0327C32.5222 31.3997 32.5222 31.3997 32.2562 30.8614C32.044 30.8502 31.8313 30.8476 31.6187 30.8488C31.4261 30.8494 31.4261 30.8494 31.2295 30.85C31.0268 30.8517 31.0268 30.8517 30.82 30.8533C30.6165 30.8542 30.6165 30.8542 30.409 30.8551C30.0726 30.8566 29.7363 30.8588 29.4 30.8614ZM34.4632 30.8614C34.545 31.8971 34.6833 32.9094 34.8608 33.9327C34.885 34.0747 34.9092 34.2167 34.9341 34.3629C34.993 34.7085 35.0525 35.054 35.1124 35.3994C35.4559 35.3813 35.7994 35.3622 36.1429 35.3427C36.2408 35.3376 36.3388 35.3325 36.4398 35.3273C36.9195 35.3423 36.9195 35.3423 37.3194 35.1401C37.3309 34.8227 37.3344 34.5089 37.3321 34.1915C37.3319 34.0967 37.3317 34.0019 37.3315 33.9043C37.3308 33.6004 37.3292 33.2965 37.3275 32.9927C37.3269 32.7871 37.3263 32.5816 37.3258 32.376C37.3244 31.8712 37.3219 31.3663 37.3194 30.8614C36.3769 30.8614 35.4343 30.8614 34.4632 30.8614ZM39.3966 30.8614C39.3966 32.1878 39.3966 33.5142 39.3966 34.8808C39.7474 34.8621 40.0982 34.8434 40.4596 34.8241C40.5689 34.8185 40.6782 34.8129 40.7908 34.8071C40.9228 34.7997 40.9228 34.7997 41.0575 34.7922C41.1466 34.7874 41.2356 34.7827 41.3274 34.7778C41.6417 34.7475 41.9442 34.6876 42.2528 34.6215C42.3084 34.1069 42.3638 33.5922 42.4192 33.0775C42.4381 32.9023 42.457 32.7271 42.4759 32.552C42.503 32.3006 42.5301 32.0493 42.5571 31.7979C42.5816 31.5708 42.5816 31.5708 42.6065 31.3391C42.6326 31.1007 42.6326 31.1007 42.6423 30.8614C41.5712 30.8614 40.5002 30.8614 39.3966 30.8614ZM44.7195 30.8614C44.5904 31.2482 44.5524 31.5641 44.5202 31.9691C44.5089 32.1082 44.4976 32.2474 44.486 32.3907C44.4747 32.5359 44.4634 32.681 44.4517 32.8306C44.4399 32.9773 44.4281 33.1239 44.416 33.275C44.3869 33.6374 44.3583 33.9998 44.33 34.3622C44.5375 34.3445 44.7449 34.3259 44.9523 34.307C45.0678 34.2967 45.1833 34.2865 45.3023 34.2759C45.9821 34.1854 46.4898 33.8754 46.9134 33.3351C47.3067 32.594 47.4459 31.6915 47.4459 30.8614C46.5462 30.8614 45.6465 30.8614 44.7195 30.8614ZM30.3088 42.5306C30.0043 42.9867 29.9739 43.1604 30.0491 43.6975C30.3719 44.1336 30.5573 44.3199 31.0959 44.4187C31.5697 44.3281 31.7181 44.2184 31.9965 43.8271C32.1477 43.4507 32.1477 43.4507 32.1264 43.0492C31.8741 42.5957 31.7156 42.4348 31.2176 42.2793C30.811 42.2709 30.6362 42.297 30.3088 42.5306ZM45.0035 42.4738C44.6628 42.853 44.6002 43.062 44.5897 43.5678C44.7351 44.0035 44.8422 44.0817 45.2388 44.3458C45.6172 44.4215 45.6172 44.4215 46.0178 44.3458C46.4544 44.0234 46.641 43.8382 46.7399 43.3004C46.6492 42.8271 46.5394 42.6789 46.1476 42.4009C45.6521 42.2324 45.465 42.2178 45.0035 42.4738Z" fill="#CFAF63"/>
<path d="M23.1684 19.4516C23.536 19.6102 23.859 19.8205 24.1907 20.0432C24.2816 20.1022 24.3724 20.1613 24.466 20.2221C26.3993 21.4925 26.3993 21.4925 26.9333 22.3041C26.9333 22.3897 26.9333 22.4752 26.9333 22.5634C27.0501 22.5625 27.167 22.5615 27.2873 22.5605C28.5032 22.5551 29.7137 22.5884 30.9284 22.6447C31.1249 22.6534 31.3213 22.6622 31.5177 22.6709C32.0448 22.6943 32.5718 22.7183 33.0988 22.7424C33.6535 22.7677 34.2083 22.7926 34.763 22.8175C35.6933 22.8594 36.6235 22.9016 37.5538 22.944C38.6264 22.993 39.6991 23.0414 40.7718 23.0894C41.8084 23.1359 42.8451 23.1828 43.8817 23.2298C44.3209 23.2497 44.7601 23.2695 45.1993 23.2892C45.7167 23.3124 46.2341 23.336 46.7514 23.3598C46.9403 23.3684 47.1293 23.3769 47.3182 23.3853C50.1519 23.5114 50.1519 23.5114 50.6428 23.8032C51.1616 24.7217 50.6717 26.0591 50.475 27.0274C50.4386 27.2089 50.4024 27.3904 50.3661 27.5718C50.2901 27.951 50.2133 28.33 50.1359 28.7089C50.0377 29.1909 49.942 29.6734 49.8471 30.156C49.7729 30.5307 49.6971 30.9051 49.6208 31.2793C49.5849 31.4569 49.5495 31.6346 49.5148 31.8124C49.2642 33.0904 48.9733 34.4324 47.9408 35.3184C47.8533 35.397 47.7658 35.4755 47.6756 35.5564C46.7553 36.1501 45.7763 36.3895 44.6997 36.5067C44.5749 36.5217 44.4502 36.5368 44.3216 36.5523C43.9132 36.6011 43.5044 36.6473 43.0957 36.6935C42.8085 36.7272 42.5213 36.761 42.2342 36.795C41.6335 36.8657 41.0327 36.9352 40.4317 37.0038C39.6668 37.0911 38.9022 37.1804 38.1376 37.2705C37.4021 37.3571 36.6665 37.4427 35.9309 37.5281C35.7932 37.5442 35.6555 37.5603 35.5136 37.5769C35.2458 37.6081 34.9779 37.6389 34.7099 37.6694C34.4563 37.6985 34.2027 37.7286 33.9493 37.7599C33.3899 37.8258 32.8555 37.8711 32.2924 37.8394C31.7666 37.8155 31.3315 37.8092 30.8281 37.9926C30.3013 38.5792 30.0416 39.3325 29.7895 40.0671C29.9301 40.0672 29.9301 40.0672 30.0736 40.0673C32.3544 40.0692 34.6352 40.0747 36.9161 40.0842C38.0191 40.0887 39.1221 40.092 40.2251 40.0924C41.1864 40.0928 42.1478 40.0955 43.1091 40.1009C43.6182 40.1036 44.1272 40.1053 44.6362 40.1042C45.1155 40.1032 45.5946 40.1053 46.0738 40.1096C46.3334 40.1112 46.593 40.1096 46.8525 40.1078C48.1215 40.1241 48.1215 40.1241 48.5261 40.4968C48.8076 40.9464 48.8021 41.2313 48.7441 41.7526C48.7013 41.881 48.6584 42.0093 48.6143 42.1416C48.6571 42.2699 48.7 42.3983 48.7441 42.5306C48.8596 43.6134 48.7541 44.4937 48.095 45.383C47.396 46.0614 46.6535 46.4547 45.6689 46.477C44.7281 46.4573 43.9767 46.2015 43.3066 45.5253C42.5938 44.6294 42.4289 43.7871 42.5125 42.6602C42.5553 42.5319 42.5981 42.4035 42.6423 42.2712C39.8147 42.2712 36.9871 42.2712 34.0738 42.2712C34.1166 42.3996 34.1594 42.528 34.2036 42.6602C34.3266 43.7758 34.0329 44.5345 33.4733 45.4803C32.7889 46.1278 32.0312 46.4588 31.0878 46.5013C30.1739 46.4567 29.4111 46.1837 28.7661 45.5208C28.0494 44.6079 27.8749 43.8093 27.9719 42.6602C28.0282 42.5238 28.0844 42.3874 28.1423 42.2469C28.2722 41.8944 28.2722 41.8944 28.1043 41.6508C28.0445 41.5667 27.9848 41.4827 27.9232 41.3961C27.4955 40.785 27.4729 40.2765 27.5824 39.5485C27.7574 39.0765 27.9911 38.6483 28.2397 38.2114C28.3646 37.9886 28.4879 37.7649 28.6094 37.5403C28.6645 37.4433 28.7195 37.3463 28.7763 37.2464C28.967 36.7149 28.7288 36.2215 28.5292 35.7167C28.155 34.7084 27.881 33.6726 27.5954 32.6368C27.4918 32.2616 27.3872 31.8866 27.2823 31.5118C26.9843 30.4471 26.687 29.3822 26.3931 28.3164C26.2125 27.6618 26.0298 27.0079 25.8458 26.3543C25.7763 26.1061 25.7076 25.8577 25.6398 25.609C25.5449 25.2619 25.4474 24.9156 25.3493 24.5693C25.3221 24.4672 25.2949 24.3651 25.2669 24.2599C25.0147 23.3887 24.5326 22.919 23.7713 22.4327C23.6181 22.3332 23.6181 22.3332 23.4617 22.2317C23.3569 22.1646 23.252 22.0976 23.144 22.0286C22.9334 21.8939 22.7233 21.7585 22.5137 21.6224C22.4212 21.5634 22.3288 21.5043 22.2336 21.4435C21.9999 21.2668 21.9999 21.2668 21.7403 20.8779C21.6854 20.3757 21.6667 20.0849 21.9431 19.6542C22.3858 19.3708 22.6464 19.3997 23.1684 19.4516ZM27.5824 24.6379C27.9171 26.0418 28.3086 27.4128 28.7509 28.7869C29.822 28.7869 30.893 28.7869 31.9965 28.7869C31.7823 27.4605 31.5681 26.1342 31.3474 24.7676C29.4663 24.6525 29.4663 24.6525 27.5824 24.6379ZM33.4246 24.8972C33.4835 25.3224 33.5424 25.7476 33.6031 26.1857C33.6211 26.3172 33.6391 26.4487 33.6576 26.5843C33.6728 26.6919 33.6879 26.7995 33.7036 26.9105C33.7185 27.0184 33.7335 27.1264 33.7489 27.2376C33.8376 27.7578 33.9591 28.2719 34.0738 28.7869C35.1448 28.7869 36.2159 28.7869 37.3194 28.7869C37.3194 27.5461 37.3194 26.3053 37.3194 25.0269C35.3915 24.9627 35.3915 24.9627 33.4246 24.8972ZM39.3966 25.1565C39.3966 26.3546 39.3966 27.5526 39.3966 28.7869C40.5105 28.7869 41.6244 28.7869 42.7721 28.7869C42.815 28.4741 42.8578 28.1612 42.9019 27.8388C42.9155 27.7435 42.9291 27.6482 42.943 27.55C43.0442 26.776 43.0318 26.0875 43.0318 25.2862C41.2324 25.222 41.2324 25.222 39.3966 25.1565ZM45.109 25.4159C45.0233 26.5283 44.9376 27.6408 44.8493 28.7869C45.8776 28.7869 46.9058 28.7869 47.9652 28.7869C48.0508 28.3724 48.1365 27.9579 48.2248 27.5309C48.2655 27.3367 48.2655 27.3367 48.307 27.1385C48.3281 27.0348 48.3491 26.9312 48.3709 26.8244C48.3926 26.7191 48.4144 26.6139 48.4368 26.5054C48.5008 26.1395 48.5008 26.1395 48.4845 25.5455C46.8136 25.4813 46.8136 25.4813 45.109 25.4159ZM29.4 30.8614C29.5792 31.8449 29.822 32.802 30.0978 33.7625C30.1546 33.9698 30.1546 33.9698 30.2124 34.1814C30.2506 34.3142 30.2888 34.4471 30.3281 34.584C30.3618 34.7034 30.3955 34.8228 30.4302 34.9458C30.6204 35.3916 30.8826 35.7008 31.3332 35.8932C31.6929 35.9258 32 35.868 32.3536 35.7965C32.5808 35.7506 32.808 35.7047 33.0351 35.6587C32.9616 34.58 32.8282 33.5234 32.6457 32.4578C32.6226 32.3175 32.5995 32.1772 32.5757 32.0327C32.5222 31.3997 32.5222 31.3997 32.2562 30.8614C32.044 30.8502 31.8313 30.8476 31.6187 30.8488C31.4261 30.8494 31.4261 30.8494 31.2295 30.85C31.0268 30.8517 31.0268 30.8517 30.82 30.8533C30.6165 30.8542 30.6165 30.8542 30.409 30.8551C30.0726 30.8566 29.7363 30.8588 29.4 30.8614ZM34.4632 30.8614C34.545 31.8971 34.6833 32.9094 34.8608 33.9327C34.885 34.0747 34.9092 34.2167 34.9341 34.3629C34.993 34.7085 35.0525 35.054 35.1124 35.3994C35.4559 35.3813 35.7994 35.3622 36.1429 35.3427C36.2408 35.3376 36.3388 35.3325 36.4398 35.3273C36.9195 35.3423 36.9195 35.3423 37.3194 35.1401C37.3309 34.8227 37.3344 34.5089 37.3321 34.1915C37.3319 34.0967 37.3317 34.0019 37.3315 33.9043C37.3308 33.6004 37.3292 33.2965 37.3275 32.9927C37.3269 32.7871 37.3263 32.5816 37.3258 32.376C37.3244 31.8712 37.3219 31.3663 37.3194 30.8614C36.3769 30.8614 35.4343 30.8614 34.4632 30.8614ZM39.3966 30.8614C39.3966 32.1878 39.3966 33.5142 39.3966 34.8808C39.7474 34.8621 40.0982 34.8434 40.4596 34.8241C40.5689 34.8185 40.6782 34.8129 40.7908 34.8071C40.9228 34.7997 40.9228 34.7997 41.0575 34.7922C41.1466 34.7874 41.2356 34.7827 41.3274 34.7778C41.6417 34.7475 41.9442 34.6876 42.2528 34.6215C42.3084 34.1069 42.3638 33.5922 42.4192 33.0775C42.4381 32.9023 42.457 32.7271 42.4759 32.552C42.503 32.3006 42.5301 32.0493 42.5571 31.7979C42.5816 31.5708 42.5816 31.5708 42.6065 31.3391C42.6326 31.1007 42.6326 31.1007 42.6423 30.8614C41.5712 30.8614 40.5002 30.8614 39.3966 30.8614ZM44.7195 30.8614C44.5904 31.2482 44.5524 31.5641 44.5202 31.9691C44.5089 32.1082 44.4976 32.2474 44.486 32.3907C44.4747 32.5359 44.4634 32.681 44.4517 32.8306C44.4399 32.9773 44.4281 33.1239 44.416 33.275C44.3869 33.6374 44.3583 33.9998 44.33 34.3622C44.5375 34.3445 44.7449 34.3259 44.9523 34.307C45.0678 34.2967 45.1833 34.2865 45.3023 34.2759C45.9821 34.1854 46.4898 33.8754 46.9134 33.3351C47.3067 32.594 47.4459 31.6915 47.4459 30.8614C46.5462 30.8614 45.6465 30.8614 44.7195 30.8614ZM30.3088 42.5306C30.0043 42.9867 29.9739 43.1604 30.0491 43.6975C30.3719 44.1336 30.5573 44.3199 31.0959 44.4187C31.5697 44.3281 31.7181 44.2184 31.9965 43.8271C32.1477 43.4507 32.1477 43.4507 32.1264 43.0492C31.8741 42.5957 31.7156 42.4348 31.2176 42.2793C30.811 42.2709 30.6362 42.297 30.3088 42.5306ZM45.0035 42.4738C44.6628 42.853 44.6002 43.062 44.5897 43.5678C44.7351 44.0035 44.8422 44.0817 45.2388 44.3458C45.6172 44.4215 45.6172 44.4215 46.0178 44.3458C46.4544 44.0234 46.641 43.8382 46.7399 43.3004C46.6492 42.8271 46.5394 42.6789 46.1476 42.4009C45.6521 42.2324 45.465 42.2178 45.0035 42.4738Z" stroke="#CFAF63" stroke-width="0.4" mask="url(#path-4-outside-2_13687_32179)"/>
</svg>
