<svg width="59" height="59" viewBox="0 0 59 59" fill="none" xmlns="http://www.w3.org/2000/svg">
<circle cx="29.4876" cy="29.5124" r="28.9876" transform="rotate(-90 29.4876 29.5124)" stroke="#FAE29E"/>
<path d="M29.5231 27.1197C30.098 27.766 30.6665 28.3941 31.2351 29.0222C32.4296 30.3637 33.6306 31.6991 34.8315 33.0345C35.0807 33.315 35.3809 33.4735 35.7706 33.4309C36.1666 33.3882 36.4541 33.1869 36.6074 32.8272C36.7607 32.4613 36.6969 32.1198 36.4349 31.821C36.0006 31.3271 35.5534 30.8332 35.1126 30.3454C33.5412 28.5892 31.9633 26.8392 30.3919 25.083C30.098 24.7598 29.7531 24.5525 29.3059 24.6745C29.0887 24.7354 28.8587 24.8635 28.7118 25.022C26.6549 27.3026 24.6171 29.5832 22.5729 31.8637C22.1896 32.2906 22.2407 32.9064 22.6815 33.254C23.135 33.6138 23.7419 33.5467 24.1507 33.0955C25.8883 31.1625 27.6195 29.2295 29.357 27.2965C29.4081 27.2416 29.4592 27.1867 29.5231 27.1197Z" fill="#FAE29E"/>
</svg>
